<mxfile host="app.diagrams.net" modified="2022-10-26T09:52:27.461Z" agent="5.0 (Windows NT 10.0; Win64; x64) AppleWebKit/537.36 (KHTML, like Gecko) Chrome/106.0.0.0 Safari/537.36 Edg/106.0.1370.52" etag="1t9eBWIk09h2B4RZhhNa" version="20.4.2" type="github">
  <diagram id="cnZtYK_ldRuonsWjDJ0U" name="Page-1">
    <mxGraphModel dx="1422" dy="794" grid="1" gridSize="10" guides="1" tooltips="1" connect="1" arrows="1" fold="1" page="1" pageScale="1" pageWidth="827" pageHeight="1169" math="0" shadow="0">
      <root>
        <mxCell id="0" />
        <mxCell id="1" parent="0" />
        <mxCell id="5Sn3j4--U58D7-IX_2XP-2" value="" style="shape=image;verticalLabelPosition=bottom;labelBackgroundColor=default;verticalAlign=top;aspect=fixed;imageAspect=0;image=data:image/png,iVBORw0KGgoAAAANSUhEUgAAA40AAAIYCAYAAADJiAl9AAAgAElEQVR4nOzdf1yUZb7/8RcojWGOUoybq1Q72mpiP8BVFrPjuK1IWpAbUabYLqJG2i7K6WjWSrRFevyitklGYnsUdYtsVSwV3dZp1yS1Bisx3ZBWx1/rWCxjkhMC3z8A+SHDD0X54fv5eMzjrPd9Xdf9ue9xz8P3Xtd9jUdBQUEZIiIiIiIi0uZ169at2cf0bPYRRUREREREpN1QaBQRERERERG3FBpFRERERETELYVGERERERERcUuhUURERERERNxSaBQRERERERG3FBpFRERERETELYVGERERERERcUuhUURERERERNxSaBQRERERERG3FBpFRERERETELYVGERERERERcUuhUURERERERNxSaBQRERERERG3Ol5K57KysuaqQ0RERERERAAPD4+WLqGGiw6NZWVlNT4iIiIiIiJy8Tw8PM4HxtYUHC8qNJaVlVFaWoqHhwedO3fGYDC0qpsSERERERFpS8rKynC5XBQVFVFaWoqnp2eryVhNfqexemD08fGhU6dOreZmRERERERE2iIPDw86deqEj48PHh4elJaWtpoVnU0KjZVLUUtKSjS7KCIiIiIi0sw8PDwwGAyUlJS0mlcBL2qm8dy5c1x77bWXox4REREREZGr2rXXXsu5c+daRWCES1ie6umpX+sQERERERFpbp6enm13eWql1lK8iIiIiIhIe9SaMpdCo4iIiIiISCvTmjKX1piKiIiIiIiIWwqNIiIiIiIi4pZCo4iIiIiIiLil0CgiIiIiIiJuKTSKiIiIiIiIWwqNIiIiIiIi4pZCo4iIiIiIiLil0CgiIiIiIiJuKTSKiIiIiIiIWwqNIiIiIiIi4pZCo4iIiIiIiLil0CgiIiIiIiJuKTSKiIiIiIiIWwqNIiIiIiIi4pZCo4iIiIiIiLil0CgiIiIiIiJuKTRKC3BiW55AdGgQZrMZ8/AIYudmkuds6bounutgFikzIxhmNmM2BxEybhZp2Y4abWyvmsvvt45P7AbHhYPuS+MBcxDJ2a5GVOAgc5oZ86u2etrYSKnrWiUOsqt9H0Gh0SQsz8ZRUqt7TgpmcxBxG+xux07Jqa/Gmt97UGg0SRvyqHl3LvI2JDXQBpyfpJMwKYQgsxlzUAjRczPJK6rZxuXIw7Ylg+Q5sUQMT6G+JyMiIiIi7ik0yhXmxDpnBBH/d5Ihs1axc88edqZNY+CRZEJ+k4KtqOERWp19aYwbMYfsLpEs/Pse9uxZw9wxRqxx918YsEbOZcuePeyp9ZkXYqo1qIvs95dy0gQp66xcvjxtJ/N/7mdcpovhM5aw5e9bWDJjOK7Mcdw/IY3cC/Kqg8zfJZF5pKnXcWF7NZqITAh9eQ179uxk1Qx/bL8LIXZN1TNyfpDEuBfzGJiwhj179rBmlj/7XhxH0gdVT8CVk0J05HoYOZc1e/awc3U8/rvjCJmWwfmRclK4LWgiSR/kwZkj2A41/cmIiIiISDmFRrmyHNmsW+kg5g+LiLH0wWQ0YuptIWbxa8x2JbMgs65ZrNYt98Ol2IbG8/JzkQT2MmI0+hEYMZvX/jCczN+lU2OisEMnuhqNGGt/DLUGdWazeUl3Jj0Xj+Wdt9l8mUKPfU0CcdtDWfL6XKJCAunTqw+BIVHMTV9FeF4SyRfMKvoTGGAjbm4mTfqmHFZWLLQz9b9nExngh9Fook9IPLOfAqs1h/K5TwfWtel0nxjP1GA/jEYjfpZ4npnYnfS11qo2K5Oxx8YzOyIQP6MRU++RxD8zFazbyDlRcb2+Uez56kPWzJvNBEuvS31MIiIiIlc1hUa5sgwGugJ2x8laJ/oQ/vIqpg7qCoBjQyxmc60lhScyiTXHklkZDHJSMJuTyfwgiejh5Usz7W9FY56QUTPQHMog2jye9INVh+zWFOLOL4GMI8Va0aMgi1lmMwkfVJ/bK1/6GTQ/+4JlkuX31B2+teOoNUtqHBTDqlXh9GnUg6nJ+fFm0vuHE/xAKI88bCU9K/ciRmmInexMK/4TIxlZe6LTO5jwif5YM7NrhcNeTHjmWcJ2x5G0tgmx0WVgwKx4hvvXTMeGTia43oihoh77RgjuX/OJ9ekfDBvtFXWcxeA/m/hf+mOoORAmumP0rqzfiLFD48sTEREREfcUGuXKMgYTmWDBFh/B+NnpZO2z43QBGDDdHkxwb2MTB0zhpbcMPJiwilWj+uAXHIpleybZ1Wbm7Ls3Y7WEYeld8ecNcUQk2hlYuUxy1q18OjOiPCj6BBM6HtK3ZFctCT2RzaaN/kwaHUztCUEA/1HxRBlSiBgdS8qGbPIcFdHSpw/Bwf6Y6upULzub38rA8uuR+GMk+N5IcjOzaf7Y6MCxHXr16F7n2e49esF2Bxe8bdkrjPjnwrDFN2GZai8LMZMjCaz+9RbZ2Pw+xIQEYwRwOPgK6Nq5VrDs3LXan/ywRMcQGVB9IBe2v26GyaEEN/Wvj4iIiIg0SKFRrjAD/o+/ydbNLxBclM6c+4dx123DiJ6TTnYde8E0LIp5r8QTZqkInDeH8sjDO0j/oDJi2cneaCXy0VD8ALCR+WIm4X9IJKpymaRlKvETu5O+MRsHRoLvm4rpnW1kF5SP4Ni9iaz+4QT3d1PCjRYSM3ay6tfd+XTBOEKCbiufvdySd+G7iBvjyjdvqf6ZllkzmO3LIt1qIXRQecXGYeHE7FvK5kZtiHNl+D3wLC+MsRE3J6Npy1TPs5P5+1gyAucxbWhFSCxx1T2T29BIG2YS+1Yg86bUHepFRERE5NIoNEqLMP50JFMXbWHnV1/y4bvxDPw2jXH3x13EBivVliSWj4zlgRhy/1IxM3com0xrJMMHVUxBnTjCXgekTbitRnB7YG4uHLBzEjAEhzKpfwbrtjsAB9lZWRWzfvXoYCL48UTe3JbPl59uYd7YTmT/PoToV201g1BdG+EkjaT66lDbB0vJffgRQm+uOGAIZHjs5d4Qp6lMjHz6BcJyZ5HwVlNjo52smeN5iXhWzbJwfnKwg6HJoc++cRbjX4T41bOx+DSxs4iIiIg0SseWLkCuLq4Tudi+NuAf3Kc8LHQw4BcQxtTF/TFOCOGlDZMIi603njXIMGg4Ux1JZO+Lwfh5Jl/FTq0KFOcALCS+t4jwC/ZHMVQEGH+Cw/xJWrsN+6BObNpoIfRpPzdXc5KXnYvrJ4H431geeQw+fbA8Ppfgmw3cFr0C66OBVe8MVm6E4654VzbbVjrAEctd79Q++TabnxxJ5M11dbwYJkxDwfYvO1D7pUY4efwIDB1ex5kKN47k2YQw7p+WQEbwtEZe04nt1enM+TaKN1+JpE/1wG8ycStQeMYF1eKj89uTwIVLaJ2fpDA98SRRf1pCZG/NMYqIiIhcLppplCvr683EjUuqYzdQA107g+Nc+bycwbs7cLZmE9dZTjfmGoZgQifC+u2ZWDd+ReTQwKoIYjLhh5UdBwov3MG02ham/iOjsFg3k5G+iazqs34XKMS2dBzR/2e7YGml4Toj4MJV+/cO6+H8cD0pjiiW7Kz9sxxriO9vJTO7OXeX9SM4zIJj5YoLZ3iLslm/LBdLWDDu4jKAadQLzBufy6zExXza4PXKf3Yj9uPhLHklBn/v2uf98BsF2fvyahy1H7TBKL8adbhyUoiems3w15cQ01+BUURERORyUmiUK8oQHMmzY3KZNWMW6VtysTudOI/kkrUkgZeyAom3lM8yGvv4YyGDFctt2J1O7DkZJM1OZkcjr+M/NBzmxpHw7SRCg6uFCkMwUf87Elv8dBI25OJwOnEesZGROJ7o5blVwe/mYEItVlKWZBF5b7D7mUH8CH8qHr834oidn0n2QQdOp4O87AwSXk7BNOZBgm+s1rzkLIVOJ87aHxdUboBjig3FYqodaAMJ+7WFHSuz6t8Q52wdYzvdvynoF5HIoqHZxEXFkrbFRt6RPGxb0pkVNY71fWYT/0B9kRHAiGX6PKJyrVjrbefCtmQisZmBzJsXRZ9zNWssD9YmLGOiODk3geQteTicDvK2JJMw9yRRYyznZzxdOSlMfGI9gUkvE9XbVfNe2+LvfIqIiIi0clqeKleYH2HJW+m/JZ201CdJeMIO+BH4cCQvbI5i5E8rAt7NkSQuzSPhxQiGJYJfQCQxE6cxMruRsbH/SKIsSaQPDb7gXUS/iEWsMqaRlvokQb+zw82BRI6NZ9746j/j4Efoo5HMyjURPqz+LTkNAVNZszOQ9FeXkvBYHHkOMP3UQujYVbw3Prjm8s6sWYRkzbpgjJGv7GRJ7yzSrf5M+u+6N3TxGxSK5X+S2ZwdhX+wm9m1JdHctaT2wXjW5E8lsM4OfoT973uYVi5m6YJYkv7pwPTTIQz/1SremxiMqTE/W+FjIT4pis2T0utplEv2/B042EH0f6VdcDb+3XymBoDx3tmseiWZpAXjCPqnA9NPLYS/sor4e6u+g9ztyexwwI5Jw7hgpOlryH+q7jsVERERkYvjUVBQUNbYxmVlZZSUlFBUVMRNN910OesSaXG5b0YQ/U08f39au3KKiIiIyJV1+PBhvL296dChAx4eHo3u161bt2avpd3PNJaeOYPTauXMJ59w9sABfjh6lJLTp6G0tKVLq+LpSYcuXbimZ0869e1L55/9DKPFgmfnzi1d2VXJ5bST93Emyakw6U8KjCIiIiJydWu3ofFsXh7frFpFwfr1rSsg1qW0lJLCQr4vLOT7ffsoWLsWPD3xCQ/nhnHj6NSnT0tXeBVxYE0cRqzNQkzSQmLc/TajiIiIiMhVol0uTz2xYAGnVqxo6TKaje+ECdw4Y0ZLlyEiIiIiIldIa1qe2q52Tz2bl8fBxx5rV4ER4NSKFRx87DHO5uU13FhERERERKQZtZvQWJSTw9cTJ/L9vn0tXcpl8f2+fXw9cSJFOTktXYqIiIiIiFxF2kVoPJuXx6G4OEoKC1u6lMuqpLCQQ3FxmnEUEREREZErpl2ExqNz5rT7wFippLCQo3PmtHQZIiIiIiJylWjzofHEggXtdkmqO9/v28eJBQtaugwREREREbkKtOnQeDYvr91tetNYp1as0DJVERERERG57Np0aPxm1aqWLqFFXe33LyIiIiIil1+bDY2lZ85QsH59S5fRBEPpuXYn/mtfpptf84xYsH49pWfONM9gIiIiIiIidejY0gVcLKfVCqWlje8w/g1u++/BdKh9/Ou17B2T2Jyl1cl75jSMXT7j3795hv/Ym2nQ0lKcVivdRo9upgFFRERERERqarOh8cwnn1xEr9Oc+X/38PXKZi+nQUXzHuXLec0/7plPPlFoFBERERGRy6bNhsazBw4063hdpr9Bj4cHc403UHSU06mTObT8KD3X7sHYcT8l3ftxzbG17H23J7f9t5ni3S4MgT3x6AAl+97m2/xBXH+fmQ4doOzYdv49ZRqn7ABDuXHpM9xQ0bbGOb9H6LVwGt36dAHKxzny2MucbsHnICIiIiIiUl2bfafxh6NHm2+w8MX0fPxOyv72DP+861GO2Qx0mZKEqeJ0h+5dOPvGMxxZ9HbFEV88T6/g4MC7yHvtM+j/CKY7D3Ai6i7+OWkFrm5Duf63gwHweeV5fO9wUfjcaPY+9jLfdRjKj16IAXpy4/+bQTffL/n3Y3fxz2fepviWR+jx8uAmld6sz0FERERERKSWNhsaS043ZT6uUhc6//ceBuyp/PyFnsD1991Jx2PbOfbcJn5gP99O+wcubzPXja+41udvc3jZJv7z4f6KcfI5M+NtzgJn3/iAs6fBZXuGgn3ww+4FfP9v6NCtH/AI3e705Ye/z+XIpqOw720OfZyPR5/B+BJDl75QlDEZxz74YdPL/Cf3NNf0u+8KPAcREREREZHGabPLUy9O3e80+nYAfnwvP9mzp+YJM/xwSdczQAe4ZsQbDNhT+8xRwID35D0MmFztxH96cj3w7SVd9ypwxErSnATSrHbCFu9k0ShTw31ERERERKTJ2uxMY4cuXZptrNISwL6Jf951F3urfb564VJHdkEJ/PDe6Brj7r3rV5QvKj3NmYU1r7nXMrlJgbE5n8MVkZOC2Wyu8QkKjSZhuQ1nHc1dOSlEmM0Mm5mJvaTyqJ2MOdGkWc9iiZ7NkB6Gaj3sZMYHYQ4aT8ondY3YCp3IJNZsxjwtE0e1w7ZXy59P7AYH4CBzmvmCZ2euo5+IiIiISHNqszON1/TsyfeFhc0y1rfbv+RH04dy05wxHHlhLYQn0OvXPSlMmNxw53q9zen907hxWDI9w5/n6HrwmfM8vn5/5eikTRTljaLbY4v50b6X+feJnvxo5iy6/Gcpec9tavQVrunZ8xJrbCH9w5gaNoCuZ+zsyEwnPdFKbtEGVsX6cz4COnPJeGcbzjGLWDkvjPM/b3kih21WYOSzJD5X7TguHB9ksC73VuJfX8bUAAPtkWX8bIb0qnbg+l60zzsVERERkdagzYbGTn378v2+fc0z2MrJHDG9QY+HE+jzqwQoOY1r02IKP4dLXfR46oln6Lj0GW6Y8xY+icB/8vnPa5so4ihF0xfgsXAapqXvYwLKju3im3mND4xQ/hzapFt+wYTJYZiAmF8PYdbAWDLmbyY31p/AyjZGf6KS1hDlbowO0KnGAQOme+N5897LV3ZrMHBMDDEBDTRy5ZIWHc1SpvHmqij8r0hlIiIiItIetdnlqZ1/9rOmdVg5mS/vcv8bjacXTuafQyqWiA68h6+ee5sfgKNj7uLLSStqjVO5vBRgBV/fcxdfJVQ1qdlnOycmjSZ3YOXy019xJKOit/1tjkTcc35pau6oyZz4sGm31eTn0Br5mCpmC504K1eUFthInxPNMLMZc1AI0XMzySuifHnrkDiyADbGEWSOJfMEgIu8LSnEhQZhNpsZ9tAs0s4vT61c2plA2vJYhpnNpOQ01MdGirmyzywihpsxm4cR/Wp21TLaEjvWV+MICTJjNgcRMimJrCOVJ+sb+0pwUXjMgeOs6wpeU0RERETaozYbGo0WC3i22fKbh6dn+XNo45zZ2WwDsPjT2wi4ckmJiSBh5UH6T57N1Hu7k/tGHOP+mI3rlpGsWjyVIQBDp7Jk1TSCfcCxcSbjnkgm+4bhTJ0VQ/9vM0iKjCPjUPUrpZOUmIW94k+N7ZO+20jo2BgsJjvWhXGkVwTO7PkRRC/Mpvu9U5n91HCMH6QR+0QKNldjx744yQ9Vf6exMjTXYggkfls++e/GaJZRRERERC5Jm12e6tm5Mz7h4RSsXdvSpbQYn/BwPDt3bukyLs7GOILMcVV/vjmSRQnh+AGu3etJzgH/Wa+xZLI/EMmAkruIfWMz2U8mYgm8lRUAxlsJDPbHhJ2MtzJxEMmSxXMZ6QMM7c4D9yeR/kEukdHdKy4yhMTNK4n6KYCdjIX19aksbCoLF8cTCIw02RkWn8XeIw7oncvmNxwwdC4vJ0XiB1ju6IP1oAGX0862euu5tBhX851GI728L2k4EREREZF6tdnQCHDDuHFXdWi8Ydy4li7h4lVshMOB9aSszcUyZSphN5dv5+IsKJ8LzJ37AOa51TudxFlU12AOHNsBMogdmFHz1JnqyzO70NXY1D5Vb012qv7fliInJwGMnc636HNvDH3uBbBha9TYF6dR7zSKiIiIiDSTNh0aO/Xpg++ECZxasaLhxu2M74QJdOrTp6XLuHiVG+EU9MG5PZr0hWlYRyZi8QGjT/kbjn3GzyXxPr9qnYz08QEKag9mwjQU2G4hfukkAqvPvHXvA9QV1Brqk1d//d5GugM4z3K24pDzYDa5Jw308m9o7Foq3+ncvZe8ojBM3gBOHEfK6xxwiwn0oxoiIiIi0kLadGgEuHHGDM588knz7aTaBlzbvz83zpjR0mU0Dx8LMdMtpM9OJ3llOMFPBWIYFE58QBrJK1NYShhDenXl5L7N2O9IZFFwXYP4MfzRMEzbM1kx30jhrwbQ/YydHV/AhBeCqTtwNdSnAcZgQiebSH8jmWdm27GYHFjfymAHU1n19/imjW0IJPzpQNLmpxH3q5OE/8oP18eZpFvBNOZZwm6v2fzTtWmk7a524PpAIiMCMVZv5LKRHBpByvWz2aD3GkVERETkErSLnWR6vvACHbp2bekyrogOXbvS84UXWrqMZuU3Zhrx/SF34WLWHwIM/kz90xYWTe7NkawUkuYuxXrGnyF3+Ln9PULTqEW8t2o2wzvnkDY3iaTMXLoHDKHX9e6vezF9qhgIfnoNb04P5uQHKSS9uo2TwfG8+W48wYamjm3AP/ZNtrwSgz/ZpM1NIf1rE5HTl7DqD9V/h7KcdWUSSXOrfaxH6phLNdD1xyZMnfQLjiIiIiJyaTwKCgrKGtu4rKyMkpISioqKuOmmmy5nXU1WlJPDobg4SgoLW7qUy6ZD167cvGgR3gF6oU1EREREpD07fPgw3t7edOjQAQ8Pj0b369atW7PX0i5mGgG8AwL4ybJlXNu/f0uXcllc278/P1m2TIFRRERERESuqHYTGqF8Y5zeq1fjO2FCS5fSrHwnTKD36tVte+MbERERERFpk9r8Rjh1uXHGDLqFhfHNqlUUrF8PpaUtXVLTeXriEx7ODePGKSyKiIiIiEiLaTfvNLpTeuYMTquVM598wtkDB/jh6FFKTp9uXUHS05MOXbpwTc+edOrbl84/+xlGiwXPzp1bujIREREREWkBremdxnY501idZ+fOdBs9mm6jR7d0KSIiIiIiIm1Ou3qnUURERERERJqXQqOIiIiIiIi4pdAoIiIiIiIibik0ioiIiIiIiFsKjSIiIiIiIuKWQqOIiIiIiIi4pdAoIiIiIiIibik0ioiIiIiIiFsKjSJXlXw2TnmdXQUtXUfzyn9/ClPez2/pMkRERETapY4tXYBcbfLZOGUe66sd8TXfzd0hIxgR0AOvWq1P7V7GvL/1IPapUZi9r2SdctUoLuK4/QD5OV+wa68v4QmjMFc/X2TH+s5qtu7I55SxBwN+PoqI+wfTw1B7oFN8tGgNXo8/wWAfwHWcXe+tYf2WvRX9Ihj70AB8q3cpdbL/r+vYlP0F+3s8zPzJgzFeUGCtcb/LZ+u772A9X084Y8cE4Fv5PwE2dN2G+jd0XkRERK46+meAtIjwmamkpqaSumQxMx/rzfHVC1jzeVHNRt/tZevfvHg4pp0GxoJdvF571i9/I1OmbERzZjVdvplEJ7v+9BJrPj6FV1fYf6z2+SJy3nmRnb7hPLskldSkaQQ532HZh/YLh7LnsM0niAE+AMXs37SALQxn5vl+y1m27XhV+2I7WxctwEogj05PZHGdgbHWuMV2NqYs4bD5sfJ6EqcQ6FzN63+trKeB6zbUv8HxRURE5Gqk0Cgty9MLo9/dhIzsivWrwxRXP3fdAMbOnMDgG1qqOGn/jAye/BJPPTaCwWbfOs6f4PgOuP22fnh7Al6+BAwKxP6v4zhrtcz/fAv9Bg/AG6D4IHs3/Zjh9wzAWNFv8D1Dyf8sn1MV7U/tXoftjok8ETKAHkbvC2bZ6xz32BdsOzWckHv8yuvx7sHgnwdV1dPQdRvq39B5ERERuSppeaq0CtcaOoPrHMWAF1CUt5U/r9rCrmNOfAeMIOKxCAIqwmP++1PY4jWR3oc3smX3cfjxYEb/eiyWmyunI4s5vns9azbuZO8x6HFHEKMeCmfwjV5V/a97gn7/2lK+5LD7AMLHT2RU34r+Fyzvq7k8r77aais+sYv1725k5+fHcXYfwIiwCMIH9eD73a/zdFoOADmzpmCLmU/IyaeZl1neb96U9YTPTGWU+cJ6Bo+ayNjhfngDzt2v8/TxQJ4q3smaj/dynB7c/dA0xv7ctyKEFJG/5c+s2LqL453M3P2LQLzg/FJF5+7XefpkCKmjKxdkli8fpvLatdVaujh4xATGhpjxdu3lz7/dxk1/eIq7u1c8p8//zPQPb+Klp+7GlyLyt6zhnX98RP5JIz0GhTDh0RGYr6v2ndb5nZyotpx5HlMyw5mZWmv5aF3qeWZN44f5PiPrv9yP5ZZ+eHOKnN02zOahNWcFi/fzxcdDGRBSEf2+c3IKM4Hdq7Xx6UHAl6dwAr6cIv/zIvrdtp9liX9k1zHoMWg0E6Ms+BnqGffmUcyfX7PC7787BTcM4NrGXLeh/g2dFxERkauSZhqlxRUd+4j1mcewDDDjDRQf2sirqYe5PTaJ1NTFzBwG7y/ZSH61acicnOP0GPMs85cs5Le/gPcXr2fvd+XnnJ+uYMHfvBg+fT6pqUnMGObFtuQV5FRbBprz8X68f/EULy1ZzPOjvdmWZj2/JNT+twVs8RpRbTli1fK8xtRWdWN7WZO8De9f/g/zU1NJjQuiMGMZVjsYBz1B6tyJBBDAxLmpPDHIiHl0Kqkzw4FwZqZWhjYnOasXsK1TRT0JE+n91Yus2F1t3ucfOzk84HGenbeYhTGDOf6nNefv9dQ/ljEvpwePJiwmdc5TDO94GNtFf1PHsaYs4XDfiTyfmkpq4gR65Mxj/edFYOhLwH2HseVVzqMVkb/Xyt1DA/AFjm97lSVH+zFxTiqpqYlM6GFjXuZeqi9Irvs7MTMqNZWZYUDYTFIbExgb88wazYt+Yb8l8MBCpsdOYUrss2z0epzYX/rVaFX0ZQ7bf347/bxq9q2hxv+3dXIqJ5/t+d6ExM8ndfHvifDZzh/frflM6h63Gtd+tmQUEjG4X7Wr1XfdxvRvwnkRERG5Kig0SotYP28KU6aUf6Ynbsc7cgYRd3gDxRz8ZD3XhIUzuLsX4IXxDgvDr9tW432zgF8MZ8ANXuDpjd894Tzc28rOA07Azs5NuwgKG8UAI+X9B4wi/Oe7eP/TqveyAoaNYLCfN3h60aPv7fR2HuZUZaj06krhNyc4fNJJcQdfAh78LRF9u1LcyNrO69SX8MQZVTOYN/Tj9lvtHDzRhPBy8gusHwcRHlKxPPI6P+6+ZwQ5ew9WLSXPqKwAACAASURBVBe8ZzSj+hrx8vTCu28/bien4l7s5Hy4lxFhI+h3nRd4eeN3z3CGN/7qtfgy+KlEJlTOYnqb6TcArPYTgBf9BoZQuOtA+TLIony++NBCYMW9+wY9ReL4wfiWd8R82+3w4WFOVBu93u+kKRrzzBqtiL1v/RFb3+ksXJJK6uKXGFW8nCU13vEr4kDOQULuaDjOnucs5Dj9eHD03fhdB3gZGXDPcH784Rfkn0+NDYzrsrM1LZ3CyImM8Ku7Sb0a6n+p44uIiEi7oeWp0iLOL738bi9/Tnwf3xsrd079Huc3sH/Ls0xZWatPmLvRfPH1g+JSgGKK7QHcdGP1eREvfHsMwF5QbTqwwzVua/P75Qx+u9vKttULWHagGN8hFh5+aAReOJtWm6cXRfkbWfP+R3yUf+r84YAAt5e+0HeF7Gcr+6dtrXl84E3V7sVd52KK7QPo0b255oi8wLGLNe9txfZ5tXfcKu/drx9B3y0nx343d5+yYbtvMBHelT2/Ydc7y9ias5fj5zuG1xy+nu+kSRrzzBrLeYCdHwYyemFFAPX0ZfDoB/no9zbyf+lXPut5MoftBcMZe0GwqjX9XFrtP197LV25Fq/qX033HvTlC4pcgHd94wKcYtfqP2K7JZYZg2q/i1nPdRvVvzHnRURE5Gqi0Cgt67oBjAjbxrObdhE0eTBGOuJ9HQTEzOeJQXXuJVmHU5yyQ1e/joAXXn45HD5RzGCfyn+RF3Pq+F78uj7YiLGKOH7gMB1vG8WEQaOgtIj8vy1j3ju+zP9N36bVZt/K68sLGT3reSbc4AU42fXG001bHurlhZ8xnMfm170ss/6ZMy+8/PZy/GQx3FBPcCxpZC1Fe1mfZMN35v+QNLV845b896cw73wDPwJ+0ZXXD+zH9+gXDL9nwvn3KveuexFb95n8T9JTeHtRvkvsvLovc8kaeGZNUlJMMV50vODxFfNDxQu4p/JsMHhszZ/SuM6ILx9x/CSYK98vLDhOzm2+RAB4daZr7b+n35ziMF25qeKdxjrHBaCI/PeXsa17LE+NNtdcNtrQdRvq36jzIiIicrXR8lRpcb4/H034yXfY8mUx4E3fgBEc/Nv77LJXrNP7zs5H726stmwPDu7aSf53AMU4937EtoMWbjd7A34E3TeYnZkb2eusPL+R9R8PZvTAxq2x++bTZaz4616c1WdoDF50bGRt55UWU1jxH4uLiziVb+OLr6qdv86IL99T9H0xxZWTQ9d1pR+FFBVVHPMLYPhN23h/036cxVX3s+bjUzTMj4BhA9iauZX93xVDcRH2f2xjW7UW117nC59/UXX+453uQ+254qr37YqLcZ7I4Yu9NZv43jGUmz5ew/v2EG4/n9jOUew635Fi53FyPv+iEfVXMRr7wekiioqLa8+jXeiSnlktPmZuH7AV6w47RaVAsZO9O7ZzbFg/bvICsJPzt64MvaNWtPPqzYD7jrHtHxV/j4qO89E/tjNgcN+KEFjr72mxk73WLRy8L4DyFb1uxqWY/PdfZcnJ4Uwcbb5wY58Gr9tA/wbPi4iIyNVIM43S8rzMWMICSXh3K4EzR2G+LYLfe25l3eqXWJZ/CuOPBxAUNpa7q/0Ltrcf2JY/z5LPK3ZP/e0EBlTsxGkcOIEZpetZM38Kr540lu+eGj+BAJ/GFOPNgIdmUPTeGhbMfJXjTl/MQyzMfKjiJw8aUdt5N4/gt6NWsGzuNF6nBwN+PoJ+A2Dv2R8q7rs3gQ91ZFniNN5/8Dnm3+cH3ftiuWcry6dPo9/k+Uwc6MvdE2fgtWkNC2YvrKhnBI893Lglg773TGTm939mReI0jtODwaPuJpCDVY/+NgtP3fZn0uOnVeyGOhi3iziNAYRPPcif/zSdNSfL6xh6mx+c/eH8rrdc15fb/V7nG/MTVEV0IwFhT3Fw9TKmv3MKX/PdjBjSDz+Kzs/WNXgf/S3c/bflTJ/WjyfmTySg3oneS3tmF471HMXvrOal1ZU/dj+KGZV/H+z72el3OzOuq93Pi373zSDkvTXMi3214tnGMnFIVQ01/576MiAknBn3VWw4427cghy2ZObjJJ9nP15W41T5ku8GrttQf5+Gxr+IRygiIiJtnkdBQUFZYxuXlZVRUlJCUVERN910Ee8HiTSD/PensKV7U5avilwOxexf9zwHbnue8L7NuYjzco0rIiIibcnhw4fx9vamQ4cOeHh4NLpft27dmr0WzTSKiFwUL/o9+BL92sy4IiIiIhdH7zSKiIiIiIiIW5pplDbHPDqVJ1q6CBERERGRq4RmGkVERERERMQthUYRERERERFxS6FRRERERERE3FJoFBEREREREbcUGkVERERERMQthUYRERERERFxS6FRRERERERE3FJoFBEREREREbcUGkVERERERMQthUYRERERERFxS6FRRERERERE3FJoFBEREREREbcUGkVERERERMQthUYRERERERFxS6FRRERERERE3Lqo0Ojh4UFpaWlz1yIiIiIiInLVKy0txcPDo6XLOO+iQ2NBQUFz1yIiIiIiInLVKygoaNuh0cPDA09PT06cOEFJScnlqElEREREROSqVFJSwokTJ/D09Gw1wfGiQmPHjh3x8vJi+/btHDp0iHPnzl2O2kRERERERK4K586d49ChQ2zfvh0vLy86duzYakKjR0FBQVlTOpSVlVFaWsq5c+coKCjgX//6F9988w3FxcWXq0YREREREZF2zcvLixtuuIFbbrkFHx8fOnbseFGzjd26dWv22jo2tUPl8tSOHTty/fXX07lzZ0pKSs5vjFNW1qQMKiIiIiIictWqDIWenp506NABg8FAhw4dWtXy1CaHRqgKjh4eHnTo0EFBUURERERE5BJ5eHjU+LQWFxUaoSoRt6abERERERERaetaW8a66NAIre9mREREREREpHld1O80ioiIiIiIyNVBoVFERERERETcUmgUERERERERtxQaRURERERExC2FRhEREREREXFLoVFERERERETcUmgUERERERERtxQaRURERERExK2Ol9K5rKysueoQERERERERwMPDo6VLqOGiQ2NZWVmNj4iIiIiIiFw8Dw+P84GxNQXHiwqNZWVllJaW4uHhQefOnTEYDK3qpkRERERERNqSsrIyXC4XRUVFlJaW4unp2WoyVpPfaaweGH18fOjUqVOruRkREREREZG2yMPDg06dOuHj44OHhwelpaWtZkVnk0Jj5VLUkpISzS6KiIiIiIg0Mw8PDwwGAyUlJa3mVcCLmmk8d+4c11577eWoR0RERERE5Kp27bXXcu7cuVYRGOESlqd6eurXOkRERERERJqbp6dn212eWqm1FC8iIiIiItIetabMpdAoIiIiIiLSyrSmzKU1piIiIiIiIuKWQqOIiIiIiIi4pdAoIiIiIiIibik0ioiIiIiIiFsKjSIiIiIiIuKWQqOIiIiIiIi4pdAoIiIiIiIibik0ioiIiIiIiFsKjSIiIiIiIuKWQqOIiIiIiIi4pdAoIiIiIiIibik0ioiIiIiIiFsKjXIFObEtTyA6NAiz2Yx5eASxczPJc7Z0XZfCRd6WFGY9NKz8nszDiJiZQtZBV52tHdnpJEwKIchsxhwUQvScdLIdtRqdyCTWbK4Yr+ITFML4mWm12tpIMZuJ3VB10PaqGfO0TGoPWa0CMqeZMb9qa+T9OcmaacYcnYG9sT0+qXWPczPJK6rVqMBG2swIhp1/ZmnYCmo2cR3MIqWBNuDE9sYsIoaXP6dhD80i7ZM2/RdKREREpNVRaJQrxIl1zggi/u8kQ2atYueePexMm8bAI8mE/CYFW+1Q0Sa4sL06jpDfZ2McO5ctO/ewc+tcIrtkM2fEOFK+qBkc7RviuH/celxD41my9UO2vB7PcNd6xt0/nrQvLgyZU9/cw5495Z+dqxMJ897MuPvjyDpxpe4POLSZt98xYcpNJ2tfw81dOSlER66HkXNZs2cPO1fH4787jpBp1UNnLmkxEWz2nsBrO/ewZ+drRJJOREwauZVNjmQy87E5fHrLNJbt3MOevy8k/NxSIkKTya72qHLfjCYiy8CElJ3s2bOT18ZCemQ0aY2oVUREREQaR6FRrgxHNutWOoj5wyJiLH0wGY2YeluIWfwas13JLMhs7DxWK/LPDJIW2olJXsbsiGD6mIyYegcT+dxrvPCwjeSVVs7PeR3KIOF32YS+voS5j48ksLcffQJGEjVvFavGfEXSwvUXzOR16mrEaCz/mHoHEzkrnhhHJuuyr9yzyv0gHevDz/JsxEmWvp9N3fOnlRxYVyZjj41ndkQgfkYjpt4jiX9mKli3kVMZdnOsLM2JZNJvw/A3GTGa/ImcNZvInKVYcyquu+ElMv3jSYy10MdkxNgrkKjpzzLSkYLtfCC0YU21ETklnrD+JoxGE/4Rs5n9sI2lHzR2JlVEREREGqLQKFeGwUBXwO44WetEH8JfXsXUQV0BcGyIxWxOocY/+U9kEmuOJfN86EjBbE4m84MkooeXL7W0vxWNeUKtJZSHMog2jyf9YNUhuzWFuIrlsUGhcaRYK3oUZDHLbCbhg+pLG8uXcgbNrzss2W1Z2EwTCB1qqHXGiGX6BlY92LuqbXYm1v6TiAwx1X4wBIdNwt+aSfahOi5So6kBA3C6/uTWjHLJ/ksuUSEWwkZPovuS9VgvWB5a3VkM/rOJ/6U/NZ6IoRMmumP0Lv+j48heHEMD6e9TrY1PfwKHOth7xAG44MZJzB4XjF+NcQwY8MdQOfiJI+x1DCGwr7FaIyP9A4bgOHCkniW6IiIiItIUCo1yZRiDiUywYIuPYPzsdLL22XG6AAyYbg8muLexoRFqSeGltww8mLCKVaP64BccimV7zeBl370ZqyUMS0V2s2+IIyLRzsCX17Bnz05WzbqVT2dGlAdFn2BCx0P6luyq2cET2Wza6M+k0cHUjoUADscOGORXM9hUMNzoT3BwH4zV297Sne513cr13enFDhzf1nO7Lie2NxeTgYWw4Lqu2Pxc2ZtZ6phK6FAj9A8mvH8G23bX976gH5boGCIDqn+XLmx/3QyTQwmuOHzyiA2MnehUo28nOp3vZsB/TAwx99a8T/v2dWRaohjZv+KAw46NLnSq9eV06tyliXcqIiIiIvVRaJQrxID/42+ydfMLBBelM+f+Ydx127C6N4JplCjmvRJPmKUicN4cyiMP7yD9g8q34uxkb7QS+WhoRaizkfliJuF/SCQqwA+j0UQfy1TiJ3YnfWM2DowE3zcV0zvbyK6YTXPs3kRW/3CC+9ddweWW/FC1jXBuu4vYDCPT1i8i8uYrcXUn1nUpEDGEQAOAPyPHDyHjrc2N3hAHwL5hJrFvBTJvSlXwdp1r+hfuyklheryD2f8dWRXSz6HZRBEREZErQKFRrijjT0cyddEWdn71JR++G8/Ab9MYd38cmUeaOlLVcseKkbE8EEPuX7LLN1M5lE2mNZLhgyqmr04cYa8D0ibcVmNX0gfm5sIBOycBQ3Aok/pnsG67A3CQnZWF5dcj8W90TeW7mVaNX2uZbRNVbYSzhbmjAMsjRN7e1BnZi3TCyrp3as6y+gWHYbE2bkMcAPvGWYx/EeJXz8ZSbSmqoWPtJbr1c+WkMPGJbQSveJOY6gG+IzRtJBERERG5GAqNckW4TuSSnZ1XtfSzgwG/gDCmLl5GYt9MXtqQW1/3RjEMGs5Ux3qy95W/Q/hVbHhVWDkHYCHxvaodSc9/VkdVBEN/gsP8yVq7DfuJbDZttBA6yP1SUL9bRsLGveSdf8cwkJiKMbckjazR1mQaArvtdc/SfXuSIwzBdH3Nw1Ub4fQhfGI83d9IJv0K7Qpq376OLHJJur9aCB4+Cyu5jdgQB5yfpDA98SRRf5pHZO+a60e79woE51nO1jh6kpP/qmOgI5nMfGIbvZMWEj+0VmA2+RHIac7WKuako8n/C4SIiIiI1EOhUa6MrzcTNy6JzRds9mKga2dwnCv/l7/BuzvUihO4znK6MdcwBBM6EdZvz8S68SsihwZWvYtoMuGHlR0HCs/vSFr1qQo1/iOjsFg3k5G+iayHHyG0nqWgpkH3MZI0VmysioKGijG7dq7Z1i84DItjBSs21I6NLrIzl5JrCSO4nmsZAqKY9rCNpOVZXP5fIcwl6/+sDEnYcEHA/vCVSBxLtmGrJzW6clKInprN8NeXENP/wrdBTb0GYNpuY1/1TXUKjpC3z8SAXtXmDo9kEvdQMp0SFpJ4bx3h/cZeDDDtwHag+hNxcuRALqa+vTQLKSIiItJMFBrlijAER/LsmFxmzZhF+pZc7E4nziO5ZC1J4KWsQOIt5XN9xj7+WMhgxXIbdqcTe04GSbOT2dHI6/gPDYe5cSR8O4nQ4GqBxRBM1P+OxBY/nYQNuTicTpxHbGQkjid6eW7VzNnNwYRarKQsySLy3mDqXQx6YxizXwnDFj+e2DeyyD3ixOl0kJeTRUamDUxUhdabI0l8JZjs35W3tR20k5eTRfrMcYxbeyuzp4fXuaFOFSMjH5+N/zuLSc9pYJ6v5CyFTifOWp8avc5eeN5ZvjNR+QY4+yyEWfwvCNh+IeFMNaWx/sO6o2v5UtL1BCa9TFRvV83xK3+LM8DCpIAM5ryYju1I+feQ/uIcMgImYQmoaHMki1lRcTiffI3ZQ7vWWScEYpkSSMbv55CeY8fptGNbPoc57wQy6d7A+p+RiIiIiDRax5YuQK4WfoQlb6X/lnTSUp8k4Qk74Efgw5G8sDmKkT+tiFc3R5K4NI+EFyMYlgh+AZHETJzGyOxGxsb+I4myJJE+NPiCdxH9IhaxyphGWuqTBP3ODjcHEjk2nnnjq/9EhB+hj0YyK9dE+LCG3x/0e2ARW/tmkb5sKU/+Vyx2wC9gCMGWF9iSPJI+tdq+55vO4jeTiZ2bh8PUhyGWSFa9F0NwY6bF+kcSP34p0a+uJ+zNSPchM2sWIVmzah0cyaIdSwi7seKPS6K5a0ntjvGsyY/CsS4Fx8NL6p5lNQQyJMLEuLc2MzXkwhpytyezwwE7Jg0jrXbf6WvIfyoQ8CcmbQ3MTWL6fyVgx4/AhyexJi3m/HfmyFlHxiEg8QHuSqw1zqhF7Fwchgnwj36TNeeSSJoxjIRD5X9fJmXUevdRRERERC6JR0FBQVljG5eVlVFSUkJRURE33XTT5axLpMXkvhlB9Dfx/P3pun9qQ0RERETkcjt8+DDe3t506NABDw+PRvfr1q1bs9fS7mcaz7jOYN3/IZ/861P2Hz/A0YJjnD57mtKy0pYu7QKeHp506dSFnj4/pl+PvvzsloFY+g2js6Fzw53lkrmcdvI+ziQ5FSb9SYFRRERERATacWj86t95rP74z6yzZbbKgFiX0rJSCr8vpPD7QvYd+5K/fLoOTw9PHgwM47Gfj+XWH/VpeBC5SA6sicOItVmISVqo5Y0iIiIiIhXa5fLUBVmLWP5RekuX0ewevzuKGSPjWroMERERERG5zFrT8tR2tXvqV//OY+zr49tlYARY/lE6Y18fz1f/zmvpUkRERERE5CrRbkJjzqE9THxzMvuOfdnSpVxW+459ycQ3J5NzaE9LlyIiIiIiIleBdhEav/p3Hr9bPYPC7wtbupQrovD7Qn63eoZmHEVERERE5LJrF6Fxztrnr5rAWKnw+0LmrH2+pcsQEREREZF2rs2HxgVZi9r9klR39h37kgVZi1q6DBERERERacfadGj86t957XbTm8Za/lG6lqmKiIiIiMhl06ZD4+qP/9zSJbQKeg4iIiIiInK5tNnQeMZ1hnW2zJYuo1VYZ8vkjOtMS5chIiIiIiLtUJsNjdb9H1JaVtrEXn2ZNHYN25//lM9e+JTP5lhZ+1Ak/S5Lhe49/9tP2f6b8c02XmlZKdb9HzbbeCIiIiIiIpXabGj85F+fNrnPhMdTmXbrNez66xOMmvMY06y7MfjPJGXcg5ehwivrYp6HiIiIiIhIQzq2dAEXa//xA03rcP3vGdO7C/s/HseM7UcBOPr3p8m/bjUbB0cSzzqSh7zO9lBf/jongvIfsxjP0tnT8d03kGk/rGZjoIulL/6GxQDXz+Tt34bjsg5hgvVu4n8zk0du7onBE1z/2c7i//sdK74t728uOIDhR33h0F4cPxmAGcB3Op/NHkpy0hOsuD6Slx97klHduwBw+mgGz6TO4x+X83mIiIiIiIg0QpudaTxacKxpHfr1xMTXfLnxaM1xDhzlqOeP6Tekgett3M3+jn0Z/IuKA4PvpN+5A/zDCmPGJTDB7wc+eDeMO1PnsctzKNPGTDzf17eri/c3P0uCdTZj5gxk7Sk4/fVC7kx6ghX0JP6ROEZdt5/FqQMZ9U4GR02RPPPwoCbdXpOfh4iIiIiISCO02dB4+uzppnW43pcudR0/6MTVqAEW8o+j0K/3kwDE/6QvruPbWUoko/xu4OiBeTzzxVE4msG0vK8x/GgQEyp6Hv3qOV7+eDMffH20jnGjGdoDPtv1BEuPwtEv5vH+0dP07BHapNtr8vMQERERERFphDa7PLXJvj3FaXwvPN7biKGRQyz+6gAThg5iEk9y5w2n+exvy4Dx4Ak9/V/nsxdqtjdX/F9XSV1hsToDd1o+5TNLtUNFPXkUeKuRtYmIiIiIiFwObTY0dunUhcLvCxvfYf9RHKGDuG1UT6i2RLVn3570LD3GBzuABpaoYt3O/qETuWcc9PvhM17eAfADlMLRz8IY9W7tcDiepY0q7jS7tliYtL3xt1Nbl051zqO2P0esJM1JIM1qJ2zxThaNMrV0RSIiIiIi7VqbXZ7a0+fHTevw7R9Ye/A0/X62hAVDB9GTngweOp+lP+vLqa8ySIbyYMlPGPzQ3UBfxowaxW2dqg+yjL8e/YE7+97B6ePbWAtABv84fpqefefzfEDf8n5hq1n7m4ncWU8511xjoicAm/ns5DXc+fNXmPaTnnD9IKZFreHth5q2PLXJz+NKy0nBbDbX+ASFRpOw3IazjuaunBQizGaGzczEXlJ51E7GnGjSrGexRM9mSI/qc8R2MuODMAeNJ+WTukZshU5kEms2Y56WiaPaYdur5c8ndoMDcJA5zXzBszPX0U9ERERE5HJoszON/Xr0Zd+xL5vUZ8XyKRjGvsTjv3ydjSHAudPk585jxrvryht8+wdWfHEnz9z+Rz67E1z/OcCps7XG2PMZj//kNr78fF21cZ/F9JuZPBK+mjFjgKKv2fi3zXzG8Drr2PivA4wKHM/GWX15ee4TPL96EYbHnmTSbzKZBLj+s5u339/cpHvr16Nvk9q3mP5hTA0bQNczdnZkppOeaCW3aAOrYv2rlgk7c8l4ZxvOMYtYOS8Mv8rjJ3LYZgVGPkvic9WO48LxQQbrcm8l/vVlTA1o7ILjtsUyfjZDelU7cH2vRi+tFhERERG5WG02NP7sloH85dN1DTes4QBL/xxR75LRte9EsPadehrk/I57c2of/IjkP4WVz1bWsJJJSSsvOLor8zEGZ1Y78G0GzyzO4Jl6LtuQn90y8BJ6X0G3/IIJk8MwATG/HsKsgbFkzN9Mbqw/gZVtjP5EJa0hyt0YHaDGBDAGTPfG8+a9l6/s1mDgmBhiAhpo5MolLTqapUzjzVVR+F+RykRERESkPWuzy1Mt/Ybh6dFmy29Wnh6eWPoNa+kyms7HVDFb6MRZuaK0wEb6nGiGmc2Yg0KInptJXhHly1uHxJEFsDGOIHMsmScAXORtSSEuNAiz2cywh2aRdn55auXSzgTSlscyzGwmJaehPjZSzJV9ZhEx3IzZPIzoV7OrltGW2LG+GkdIkBmzOYiQSUlkHak8Wd/YV4KLwmMOHGcbtyewiIiIiEhD2mzq6mzozIOBYS1dRqvwYGAYnQ2dW7qMJnNmZ7MNwOJPbyPgyiUlJoKElQfpP3k2U+/tTu4bcYz7YzauW0ayavHU8r2Khk5lyappBPuAY+NMxj2RTPYNw5k6K4b+32aQFBlHxqHqV0onKTELe8WfGtsnfbeR0LExWEx2rAvjSK8InNnzI4hemE33e6cy+6nhGD9II/aJFGyuxo59cZIfqv5OY2VorsUQSPy2fPLfjdEso4iIiIg0iza7PBXgsZ+PvYglqu3PYz8f29IlNN7GOILMcVV/vjmSRQnh+AGu3etJzgH/Wa+xZLI/EMmAkruIfWMz2U8mYgm8lRUAxlsJDPbHhJ2MtzJxEMmSxXMZ6QMM7c4D9yeR/kEukdHdKy4yhMTNK4n6KYCdjIX19aksbCoLF8cTCIw02RkWn8XeIw74/+zdf1jVdZ7//zvI2WPoHKSAzT4d6zraioJdA32FUFsP04CmDdRI7Jg/2lFMGbVV2RZXdzNmJka/fslmlZRE2yStNdoRSlKcgjYL0engJ2FGPymbHjf4gA2XZxqKOfz4/sEBDsiBg6n443G7rnNd+X6/Xq/zfL+PdvHg9Xq/zugqDrxSD1PW86vMZMyA9f4xlJ4x0uSwU9JnPd8txnV/ptHE3f7faTgREREREa/c0KHxvr8ew1OT5/Hax3mDXcqgeWryPO776zGDXYb3XBvhcKqA7N9UYV28lIR72rdzcTS0zwVWrf8RlvXunepwNPY2WD31hwH2kvrA3u6n/uy+PPN7BJgG2qfrqcmh7v9KGh3UAZiGdrYY83AKYx4GsGHzauzL49UzjSIiIiIiV9gNHRoBVk1bwbH//t2Ad1K9GYy/axyrpq3ov+H1pGMjnIYxOA4vIG9TLqXTMrAGgimw/QnHMXPXk/GI2a2TiTGBQEPPwYIJngIctpK2fRGR7jNvIWOA3oJaf31O912/v4kQAMe3dGys6zhTRlWdkbvD+hu7h45nOo9VcroxgWB/AAf159vrDL83GPSlGiIiIiIyyG7YZxrd/fzx5wm4LWCwy7imAm4L4OePPz/YZVy+QCspK61Qn0fWZLbmGAAAIABJREFU6zaaAOPERNIi4PTr2Wx/7xOqTlRR8h9Z7PoDmHr9bgkzsT9JIJhSdm38D0pOVFF15ADbtx+gyWjqrcNl9nFjimH608FwOIt/XpNF7qbV/OzJOcxZUcJ54wDHNkaS+Gwk1Oey4scryHwli3ULfkTqWxD8+FoSJnRv/ulvcsl9xe2V38t3XDbZyIq1YJmVS1X/VyMiIiIi0q+bIjTe99dj+PWTL94ywTHgtgB+/eSLN9ay1F6YH19G2nio2rSFgrOAMYylrxbz0tOjOX8wm8z12yn9cxiT7jd7/D7C4Bkv8e7uNcQOqyB3fSaZhVWEREzi7ts9v+/l9OliJObZfHaujKHu/WwyN5dQF5PGzrfTiDEOdGwjYak7Kf51CmGUkbs+m7z/DiZ55VZ2/8L9eyjblb6eSeZ6t1fp+V7mUo0E3BVM8FB9g6OIiIiIXBk+DQ0Nbd42bmtro6WlhcbGRkaNGnU167osn//f0zz3m+dv6qWq4+8ax88ff/6GD4wiIiIiIuLZuXPn8Pf3Z8iQIfj4+Hjdb8SIEVe8lptiprHDfX89hjeWvM5Tkz1+LfwN7anJ83hjyesKjCIiIiIics3cVDON7j7/v6fZc+QN9tkKaW1rHexyLpuvjy+PRSbw5IOzFRZFRERERG4R19NM400bGjv8uenPlJ78kN998Skna07xPw1f8qdv/3RdBklfH1++N/R7/K/AuwgdOZb/594HsIZOZZhx2GCXJiIiIiIi15BCo4iIiIiIiHh0PYXGm+qZRhEREREREbmyFBpFRERERETEI4VGERERERER8UihUURERERERDxSaBQRERERERGPFBpFRERERETEI4VGERERERER8UihUURERERERDxSaBQRERERERGPFBpFbgnVFC3extGGwa7jyqrev5jF+6sHuwwRERGRm5rfYBcgt4pqihZvoMDtSJBlMpPj44iLGImhR+sLx3aw4YORpC6fgcX/WtYpt4yvqzn09luUflLNBdNIwh9MZPbjEQR1/CqtyU7pm3s49Ek1F0LCifvxbJIignoZ6AIfv5SP4aklRAUCzkZq7KeorjjB0cogEtfNwOLevKmGo+/mU1Bc6XrfJGbPCufSkXuM22+9/YzbX//+zouIiMgtSz8OyDWVmJ5DTk4OOVu3kP7kaGr2vEj+Z43dG31dyaEPDDyRcpMGxoajbOs561ddxOLFRWjOrLurNpPotFOUvZVzlidZuzWHnIzFRDr2sO23dlcDBxV7/o3yoETWbs1hy/JoLu7ZRlG189Kx7BWUBEYTHtje7+irL5B/5AKGADj55SVvzMn3XqSYWNK35pCTuYxox2vsKKnpe9x+6+1n3P769zu+iIiI3MoUGmVw+BowmScTPy2A0s/P0e1H8eHhzE6fT9Qdg1Wc3PS+PEHJhVjiHzLj7wv4jyTqwWjsX9TgAPjqJOVHokmMD8XfFwwhUSQmDKPgyCl6/IqD6s+KCY0Kp/33Gyainn6B5U/GEWXpZVbSeYbK9+4i9qFwTL6AIYioh6ZQ/b+rudDXuP3V29+4/fXv77yIiIjc0rQ8VQbVbcZh0NSMEzAAjacP8cbuYo5+6SAoPI6kJ5OIcIXH6v2LKTYsZPS5IoqP1cBdUcz8+9lY7+mYjnRSc6yA/KJyKr+EkfdHM2NWIlF3Grr6D19C6BfFnUsOE+cuZMZYV/9Llvd1X57XV209OWuPUvB2EeWf1eAICScuIYnEiSP55tg2ns2tAKBi9WJsKRuJr3uWDYXt/TYsLiAxPYcZlkvriZqxkNmxZvwBx7FtPFsTyXJnOflHKqlhJJNnLWP2g0Gupb6NVBe/wa5DR6kZamHyDyIxQOdSRcexbTxbF0/OzI6Fk+3Lh+l47556LF2MipvP7HgL/k2VvPFMCaN+sZzJIa779NkbrPxwFC8sn0wQjVQX5/PWRx9TXWdi5MR45v8kDstwt8+018+k1m058wYWFyaSntNjmWdv+rhn3dwzg40bux/65usLcEc4twFcvEAF/sS7rZsO+l9j4cMaviK8azznSU4cmUJ4fM8F1h587eACFiJD3I4FjiTiDxdw0PX5XDJuf/X2N25//fs7LyIiIrc0zTTKoGn88mMKCr/EGm7BH3CeLWJzzjkmpGaSk7OF9Kmwf2sR7isCKypqGPn4WjZu3cQzP4D9Wwqo/Lr9nOPTXbz4gYHYlRvJyclk1VQDJVm7qHBbBlpx5CT+P1jOC1u38PxMf0pySzuXhNo/eJFiQ1z78rzMZUS7Lc/zprauC6skP6sE/x/+ExtzcshZEc3FvTsotYNp4hJy1i8kgggWrs9hyUQTlpk55KQnAomk53SENgcVe16kZKirnnULGf35L9l1zG3e56NyzoU/xdoNW9iUEkXNq/md13rhox1sqBjJT9ZtIee55cT6ncN22Z9UDaXZWzk3diHP5+SQkzGfkRUbKPisEYxjiXjkHLbTHfNkjVRXljJ5SgRBQE3JZrb+TygLn8shJyeD+SNtbCis7DZb1/tnYmFGTg7pCUBCOjneBEZv7pknTScp3nuRpKjQ9tA9PIBQGvmL++fb6gS7s9useOMfKjj84ARCvcyM7Xo07uX/wv2O27NeL8ftu/8AzouIiMgtRaFRrqmCDYtZvLj9tTLjMP7Jq0i63x9wcuZ3BfxVQiJRIQbAgOl+K7HDS7o9Fxbxg1jC7zCArz/mhxJ5YnQp5accgJ3y944SnTCDcBPt/cNnkPjgUfZ/2vVcVsTUOKLM/uBrYOTYCYx2nONCR6g0BHDxq1rO1TlwDgki4rFnSBobgNPL2joNHUtixqquGcw7Qplwn50ztQNY6Fd3glK35ZEMNzP5oTgqKs90LRd8aCYzxpow+BrwHxvKBCpc12Kn4sNK4hLiCB1uAIM/5odiifX+3XsIImp5BvM7ZjH9LYSGQ6m9FjAQ+kA8F4+eal8G2VjNiQ+tRLquPSh6ORlzowhq74hl3AT48By1bqP3+ZkMhDf3rDdNdg7l5nExeSFxZtexkLFEhR+ioPgkja3gbKik4O0iGBeAqbNjI6cqzhB/f/9xdmD6Gbe3egeiv/7fdXwRERG56Wh5qlxTnUsvv67kjYz9BN3ZsXPqNzi+gpPFa1n8eo8+CZ5GCyLIDM5WACdOewSj7nSfFzEQNDIce4Pb3NCQv/JYm/mHq3jmWCkle15kxyknQZOsPDErDgOOgdXma6Cxuoj8/R/zcXXXk2oRER7f+lJfX+Qkhzi57FD34w+McrsWT52dOO3hjAy5UnNEBqg/Sv67h7B95vaMW8e1m0OJ/vo1KuyTmXzBhu2RKJL8O3p+xdG3dnCoopKazo6J3Yfv4zMZEG/u2SUucHTPv2G7N5VVE92fQQxi8k9XcvHVPFam/oWRE+NJesgKXwR0LU2tq+BwQyyzBxysekxPt/Y43ee4nur1Ytx++3tzXkRERG5FCo0yOIaHE5dQwtr3jhL9dBQm/PAfDhEpG1ky0dR/fwAucMEOAWY/wIDBXMG5WidRgR1hycmFmkrMAY95MVYjNafO4TduBvMnzoDWRqo/2MGGt4LY+NOxA6vNfohtr11k5urnmX+HAXBw9JVnB7Y81GDAbErkyY29L8vse87SgMFcSU2dE+7oIzi2eFlLYyUFmTaC0v+JzKX+GGh/FnFDZwMzET8IYNupkwT9zwliH5rf+Vxl5b5fYgtJ558yl+NvoH2X2A29v8131s89u1Qj1ft3UBKSyvKZlkuXYQ4PZcbyF5gBgJOTb69h8rjEztB44bQNomb38lUZfRhuIoiPqakDS8fzhw01VIwLIqnfcfuo14tx+73efs+LiIjIrUrLU2XQBD04k8S6tyj+gxPwZ2xEHGc+2M9Ru+uJt6/tfPx2EdVuD8CdOVpO9dcAThyVH1NyxsoEiz9gJvqRKMoLi6h0dJwvouBIFDMf8G4q6KtPd7Drt5U43GdojAb8vKytU6uTi67/dDobuVBt48TnbueHmwjiGxq/ceLsmBwaHkAoF2lsdB0zRxA7qoT9753E4ey6nvwjPffY7I2ZiKnhHCo8xMmvneBsxP5RCSVuLW4bHgSfneg6f6Tcc6htdnY9g+h04qit4ERl9yZB909h1JF89tvjmdCZ2JpxNnV2xOmooeKzE17U38VkCoU/NdLodPacR7vUgO6Zk+r9m9laF8vCmZZLN8pxb+moofK9beSdnUlsREdLOxUfBDDl/gHOxhlGE/7Il5R85Pp71ljDxx8dJjxqrCskehq3n3r7Hbe/6/X+foiIiMitRzONMngMFqwJkax7+xCR6TOwjEviX30PsW/PC+yovoDprnCiE2Yz2e0n2NFmsL32PFs/c+2e+sx8wl07cZoemM+q1gLyNy5mc52pfffUtPlEBHpTjD/hs1bR+G4+L6ZvpsYRhGWSlfRZrp0yvait0z1xPDNjFzvWL2MbIwl/MI7QcKj89i+u6x5N5Cw/dmQsY/9j/8LGR8wQMhbrQ4d4beUyQp/eyMIHgpi8cBWG9/J5cc0mVz1xPPmEdyEl6KGFpH/zBrsyllHDSKJmTCaSM123fpyV5ePeIC9tmWs31Cg8LuI0RZC49AxvvLqS/Lr2OqaMM8O3f+nc9ZbhY5lg3sZXliV0RXQTEQnLObNnByvfukCQZTJxk0Ixd2ww48VUVtB4K5M/eI2Vy0JZsnEhEX1O9A7gnjVUUFxYjYNq1h7Z0e1U5xJq146yJXeFE/m3caSvCO16ntF+knLzBFYN7/8aujMQ+sgq4t/NZ0PqZte9T2XhpKC+x+233n7G7a9/oDf3Q0RERG5VPg0NDW3eNm5ra6OlpYXGxkZGjerrOSGRK696/2KKQwayfFXkanByct/znBr3PIljr+Qizqs1roiIiNyIzp07h7+/P0OGDMHHx8frfiNGjLjitWimUURkQAyEPvYCoTfMuCIiIiLfjZ5pFBEREREREY800yg3DMvMHJYMdhEiIiIiIrcYzTSKiIiIiIiIRwqNIiIiIiIi4pFCo4iIiIiIiHik0CgiIiIiIiIeKTSKiIiIiIiIRwqNIiIiIiIi4pFCo4iIiIiIiHik0CgiIiIiIiIeKTSKiIiIiIiIRwqNIiIiIiIi4pFCo4iIiIiIiHik0CgiIiIiIiIeKTSKiIiIiIiIRwqNIiIiIiIi4pFCo4iIiIiIiHik0CgiIiIiIiIeKTSKiIiIiIiIRwqNIiIiIiIi4pFCo4iIiIiIiHh0WaHRx8eH1tbWK12LiIiIiIjILa+1tRUfH5/BLqPTZYfGhoaGK12LiIiIiIjILa+hoeHGDo0+Pj74+vpSW1tLS0vL1ahJRERERETkltTS0kJtbS2+vr7XTXC8rNDo5+eHwWDg8OHDnD17lubm5qtRm4iIiIiIyC2hubmZs2fPcvjwYQwGA35+ftdNaPRpaGhoG0iHtrY2WltbaW5upqGhgS+++IKvvvoKp9N5tWoUERERERG5qRkMBu644w7uvfdeAgMD8fPzu6zZxhEjRlzx2vwG2qFjeaqfnx+33347w4YNo6WlpXNjnLa2AWVQERERERGRW1ZHKPT19WXIkCEYjUaGDBlyXS1PHXBohK7g6OPjw5AhQxQURUREREREviMfH59ur+vFZYVG6ErE19PFiIiIiIiI3Oiut4x12aERrr+LERERERERkSvrsr6nUURERERERG4NlzXT2LGDaktLC01NTdoIR0RERERE5DJoIxwRERERERHxijbCERERERERkX5dbxlLG+GIiIiIiIiIR9oIR0RERERERDxSaBQRERERERGPFBpFRERERETEI4VGERERERER8UihUURERERERDxSaBQRERERERGPFBpFRERERETEI4VGERERERER8cjvu3Rua2u7UnWIiIiIiIgI4OPjM9gldHPZobGtra3bS0RERERERC6fj49PZ2C8noLjZYXGtrY2Wltb8fHxYdiwYRiNxuvqokRERERERG4kbW1tNDU10djYSGtrK76+vtdNxhrwM43ugTEwMJChQ4deNxcjIiIiIiJyI/Lx8WHo0KEEBgbi4+NDa2vrdbOic0ChsWMpaktLi2YXRURERERErjAfHx+MRiMtLS3XzaOAlzXT2NzczG233XY16hEREREREbml3XbbbTQ3N18XgRG+w/JUX199W4eIiIiIiMiV5uvre+MuT+1wvRQvIiIiIiJyM7qeMpdCo4iIiIiIyHXmespcWmMqIiIiIiIiHik0ioiIiIiIiEcKjSIiIiIiIuKRQqOIiIiIiIh4pNAoIiIiIiIiHik0ioiIiIiIiEcKjSIiIiIiIuKRQqOIiIiIiIh4pNAoIiIiIiIiHik0ioiIiIiIiEcKjSIiIiIiIuKRQqOIiIiIiIh4pNAo15AD22vrWDA9GovFgiU2idT1hZx2DHZd30UTp4uzWT1ravs1WaaSlJ7NwTNNvbauL8tj3aJ4oi0WLNHxLHguj7L6Ho1qC0m1WFzjuV7R8cxNz+3R1ka2xULqO10HbZstWJYV0nNItwooXGbBstnm5fU5OJhuwbJgL3Zve/yuxzWuL+R0Y49GDTZy05OY2nnPcrE1dG/SdOYg2f20AQe2V1aTFNt+n6bOWk3u727ov1AiIiIi1x2FRrlGHJQ+F0fSv9cxafVuyo8fpzx3GQ+czyL+p9nYeoaKG0ITts1ziP/XMkyz11NcfpzyQ+tJ/l4Zz8XNIftE9+Bof2cFj84poGlKGlsPfUjxtjRimwqY8+hcck9cGjKX7jzO8ePtr/I9GST4H2DOoys4WHutrg84e4D/eCuY4Ko8Dv6+/+ZNFdksSC6AaevJP36c8j1phB1bQfwy99BZRW5KEgf85/Ny+XGOl79MMnkkpeRS1dHkfCHpTz7Hp/cuY0f5cY7/1yYSm7eTND2LMrdbVbVzAUkHjczPLuf48XJeng15yQvI9aJWEREREfGOQqNcG/Vl7Hu9npRfvESKdQzBJhPBo62kbHmZNU1ZvFjo7TzWdeT/7CVzk52UrB2sSYphTLCJ4NExJP/Ly/z8CRtZr5fSOed1di/r/qGM6du2sv6paUSONjMmYhrzNuxm9+Ofk7mp4JKZvKEBJkym9lfw6BiSV6eRUl/IvrJrd6+q3s+j9Im1rE2qY/v+MnqfP+1QT+nrWdhT01iTFInZZCJ49DTS/nkplJZQ0RF2K0rZXpHMomcSCAs2YQoOI3n1GpIrtlNa4Xrfd16gMCyNjFQrY4JNmO6OZN7KtUyrz8bWGQhtlObYSF6cRsL4YEymYMKS1rDmCRvb3/d2JlVERERE+qPQKNeG0UgAYK+v63FiDIm/2s3SiQEA1L+TisWSTbcf+WsLSbWkUtgZOrKxWLIofD+TBbHtSy3tby7AMr/HEsqze1lgmUvema5D9tJsVriWx0ZPX0F2qatHw0FWWyyse999aWP7Us7ojb2HJbvtILbg+UyfYuxxxoR15Tvsfmx0V9uyQkrHLyI5PrjnjSEmYRFhpYWUne3lTbo1NWIE/tR3cruCqij7zyrmxVtJmLmIkK0FlF6yPNTdtxjD1pD2wzC63RHjUIIJweTf/sf685XUT4lkfKBbm8DxRE6pp/J8PdAEdy5izZwYzN3GMWIkDGPH4LXnqayfRORYk1sjE+MjJlF/6nwfS3RFREREZCAUGuXaMMWQvM6KLS2JuWvyOPh7O44mACPBE2KIGW3qb4QesnnhTSOPrdvN7hljMMdMx3q4e/CyHztAqTUBqyu72d9ZQVKGnQd+lc/x4+XsXn0fn6YntQfFwBimz4W84rKu2cHaMt4rCmPRzBh6xkKA+vpPYKK5e7BxMd4ZRkzMGEzube8NIaS3S7k9hLv5hPo/9nG5TQ5sO7ewFysJMb2945XXVHaA7fVLmT7FBONjSBy/l5JjfT0vaMa6IIXkCPfPsgnbbw/A09OJcR2uO28D01CGdus7lKGd3YyEPZ5CysPdr9N+eB+F1nlMG+86UG/HxvcY2uPDGTrsewO8UhERERHpi0KjXCNGwp7ayaEDPyemMY/nHp3K98dN7X0jGK/MY8Ov00iwugLnPdP5uyc+Ie/9jqfi7JQVlZL8k+muUGej8JeFJP4ig3kRZkymYMZYl5K2MIS8ojLqMRHzyFKC3yqhzDWbVn/sPQ6OTyRmfO8VXG1Zs9w2whn3fVL3mlhW8BLJ91yLd3dQui8bkiYRaQQIY9rcSex984DXG+IA2N9JJ/XNSDYs7greTc0D/8CbKrJZmVbPmn9M7grpzWg2UUREROQaUGiUa8r0N9NY+lIx5Z//gQ/fTuOBP+Yy59EVFJ4f6Ehdyx1dI2P9UQpV/1nWvpnK2TIKS5OJneiavqo9T2U95M4f121X0h+tr4JTduoAY8x0Fo3fy77D9UA9ZQcPYv37aYR5XVP7bqZd4/dYZjtAXRvhFLN+BmD9O5InDHRG9jLVlrLvre6zrOaYBKyl3m2IA2AvWs3cX0LanjVY3ZaiGv16LtHtW1NFNguXlBCzaycp7gHeDwY2koiIiIhcDoVGuSaaaqsoKzvdtfRziBFzRAJLt+wgY2whL7xT1Vd3rxgnxrK0voCy37c/Q/h5amJXWGkGsJLxbteOpJ2vPfNcwTCMmIQwDv6mBHttGe8VWZk+0fNSUPO906CoktOdzxhGkuIaszhzWre2wcGT4Ji991m6P9ZxnkkE3979cNdGOGNIXJhGyCtZ5F2jXUHth/dxkCoyH3ULwbGrKaXKiw1xwPG7bFZm1DHv1Q0kj+6+fjTk7khwfMu33Y7WUfdFLwOdLyR9SQmjMzeRNqVHYA42E8mf+LZHMXX1A/4NhIiIiIj0QaFRro3/PsCKOZkcuGSzFyMBw6C+uf0nf6N/CPSIEzR9y5+8eQ9jDNMXQsHhQkqLPid5SmTXs4jBwZgp5ZNTFzt3JO16dYWasGnzsJYeYG/eexx84u+Y3sdS0OCJjzCNXHYVdUVBo2vMgGHd25pjErDW72LXOz1jYxNlhdupsiYQ08d7GSPmsewJG5mvHeTqfwthFQf/vZRJ6965JGB/+Otk6reWYOsjNTZVZLNgaRmx27aSMv7Sp0GD7w4n+LCN37tvqtNwntO/Dyb8bre5w/OFrJiVxdB1m8h4uJfwfufdhAd/gu2U+x1xcP5UFcFj79YspIiIiMgVotAo14QxJpm1j1exetVq8oqrsDscOM5XcXDrOl44GEmatX2uzzQmDCt72fWaDbvDgb1iL5lrsvjEy/cJm5II61ew7o+LmB7jFliMMcz7f6dhS1vJuneqqHc4cJy3sTdjLgteq+qaObsnhunWUrK3HiT54Rj6XAx6ZwJrfp2ALW0uqa8cpOq8A4ejntMVB9lbaINgukLrPclk/DqGsn9ob2s7Y+d0xUHy0ucw5zf3sWZlYq8b6nQxMe2pNYS9tYW8in7m+Vq+5aLDgaPHq1uvby8972jfmah9A5zfW0mwhl0SsM3xiSwNzqXgw96ja/tS0gIiM3/FvNFN3cfv+C7OCCuLIvby3C/zsJ1v/xzyfvkceyMWYY1wtTl/kNXzVuD42cusmRLQa50QiXVxJHv/9TnyKuw4HHZsrz3Hc29FsujhyL7vkYiIiIh4zW+wC5BbhZmErEOML84jN+dnrFtiB8xEPpHMzw/MY9rfuOLVPclkbD/Nul8mMTUDzBHJpCxcxrQyL2Pj+GnMs2aSNyXmkmcRzUkvsduUS27Oz4j+BzvcE0ny7DQ2zHX/iggz03+SzOqqYBKn9v/8oPlHL3Fo7EHydmznZ3+bih0wR0wixvpzirOmMaZH23eD8tiyM4vU9aepDx7DJGsyu99NIcababHxyaTN3c6CzQUk7Ez2HDIPrib+4OoeB6fx0idbSbjT9cetC/j+1p4d08ivnkf9vmzqn9ja+yyrMZJJScHMefMAS+MvraHqcBaf1MMni6aS27Pvynyql0cCYaTk5sP6TFb+7TrsmIl8YhH5uSmdn1l9xT72ngUyfsT3M3qMM+MlyrckEAyELdhJfnMmmaumsu5s+9+XRXt7PPsoIiIiIt+JT0NDQ5u3jdva2mhpaaGxsZFRo0ZdzbpEBk3VziQWfJXGfz3b+1dtiIiIiIhcbefOncPf358hQ4bg4+Pjdb8RI0Zc8Vo00yji0uSwc/pIIVk5sOhVBUYREREREdAzjSIu9ZRmTOVHv/qUMZmbtLxRRERERMRFM40iAAQzLaua6sEuQ0RERETkOqOZRhEREREREfFIoVFEREREREQ8UmgUERERERERjxQaRURERERExCOFRhEREREREfFIoVFEREREREQ8UmgUERERERERjxQaRURERERExCOFRhEREREREfFIoVFEREREREQ8UmgUERERERERjxQaRURERERExCOFRhEREREREfFIoVFEREREREQ8UmiUG8v5UjIXTMVisbCiqH6wqxERERERuekpNMq1UZGNxWLp9oqevoB1r9lw9NK8qSKbJIuFqemF2Fs6jtrZ+9wCcku/xbpgDZNGGt162ClMi8YSPZfs3/U24nWotpBUiwXLskLc469tc/v9SX2nHqincJnlkntn6aWfiIiIiMjV4DfYBcgtZnwCSxPCCfiznU8K88jLKKWq8R12p4bRGQEdVex9qwTH4y/x+oYEzB3HaysoKQWmrSXjX9yO00T9+3vZV3Ufadt2sDTCyM3IOncNk+52O3D73dycVyoiIiIi1xOFRrm27v0B859OIBhI+ftJrH4glb0bD1CVGkZkRxtTGPMy85nnaYwhMLTbASPBD6ex8+GrV/b14IHHU0iJ6KdRUxW5CxawnWXs3D2PsGtSmYiIiIjczLQ8VQZPYLBrttCBo2NFaYONvOcWMNViwRIdz4L1hZxupH1566QVHAQoWkG0JZXCWoAmThdns2J6NBaLhamzVpPbuTy1Y2nnOnJfS2WqxUJ2RX99bGRbOvqsJinWgsUylQWby7qW0bbYKd28gvirfj7jAAAgAElEQVRoCxZLNPGLMjl4vuNkX2NfC01c/LKe+m+bruF7ioiIiMjNTKFRBo2jrIwSAGsYo01AUxXZKUmse/0M459ew9KHQ6h6ZQVz/q2MpnunsXvLUiYBTFnK1t3LiAmE+qJ05izJouyOWJauTmH8H/eSmbyCvWfd3ymPzIyD2F1/8rZP3jET02enYA22U7ppBXmuwFm2MYkFm8oIeXgpa5bHYno/l9Ql2diavB378mTNcn+msSM092CMJK2kmuq3UzTLKCIiIiJXhJanyrVVtIJoy4quP9+TzEvrEjEDTccKyKqAsNUvs/XpMCCZ8Jbvk/rKAcp+loE18j52AZjuIzImjGDs7H2zkHqS2bplPdMCgSkh/OjRTPLeryJ5QYjrTSaRceB15v0NgJ29m/rq01HYUjZtSSMSmBZsZ2raQSrP18PoKg68Ug9T1vOrzGTMgPX+MZSeMdLksFPSZz3fLcZ1f6bRxN3+32k4ERERERGvKDTKteXaCIdTBWT/pgrr4qUk3NO+nYujoX0usGr9j7Csd+9Uh6Oxt8HqqT8MsJfUB/Z2P/Vn9+WZ3yPANNA+XU9NDnX/V9LooA7ANLSzxZiHUxjzMIANm1djXx6vnmkUEREREbnCFBrl2urYCKdhDI7DC8jblEvptAysgWAKbH/Ccczc9WQ8YnbrZGJMINDQc7BggqcAh62kbV9EpPvMW8gYoLeg1l+f033X728iBMDxLd+6DjnOlFFVZ+TusP7G7qHjmc5jlZxuTCDYH8BB/fn2OsPvDQZ9qYaIiIiIDDKFRhkcgVZSVlrJW5NH1uuJxCyPxDgxkbSIXLJez2Y7CUy6O4C63x/Afn8GL8X0NoiZ2J8kEHy4kF0bTVz8cTghf7bzyQmY//MYeg9c/fXphymG6U8Hk/dKFv+8xo41uJ7SN/fyCUvZ/V9pAxvbGEnis5HkbsxlxY/rSPyxmaYjheSVQvDja0mY0L35p7/JJfeY24HbI0lOisTk3qjJRtb0JLJvX8M7eq5RRERERK4AhUYZNObHl5H2eilZm7ZQkLCT5HvCWPpqMeaXM9nym2wy64MZ8/B05t1v9vh9hMEzXuLd3eFk/X955K4vhHsiSf7xIu6+3fP7Xk6fLkZins1n57AsMl931ZiQxs5/XEqMERjQ2EbCUndSfPcWMrMLutqvXEPKwmmYe7QufT2TUvcDM14iMSmyRysjAXcFE6xvcBQRERGRK8SnoaGhzdvGbW1ttLS00NjYyKhRo65mXSIiIiIiIresc+fO4e/vz5AhQ/Dx8fG634gRI654LfrKDREREREREfFIoVFEREREREQ8UmgUERERERERjxQaRURERERExCOFRhEREREREfFIoVFEREREREQ8UmgUERERERERjxQaRURERERExCOFRhEREREREfFIoVFEREREREQ8UmgUERERERERjxQaRURERERExCOFRhEREREREfFIoVHkllBN0eJtHG0Y7DqurOr9i1m8v3qwyxARERG5qfkNdgFyq6imaPEGCtyOBFkmMzk+jriIkRh6tL5wbAcbPhhJ6vIZWPyvZZ1yy/i6mkNvv0XpJ9VcMI0k/MFEZj8eQVDHr9Ka7JS+uYdDn1RzISScuB/PJikiqJeBLvDxS/kYnlpCVCDgbKTGforqihMcrQwicd0MLO7Nm2o4+m4+BcWVrvdNYvascC4duce4/dbbz7j99e/vvIiIiNyy9OOAXFOJ6Tnk5OSQs3UL6U+OpmbPi+R/1ti90deVHPrAwBMpN2lgbDjKtp6zftVFLF5chObMurtqM4lOO0XZWzlneZK1W3PIyVhMpGMP235rdzVwULHn3ygPSmTt1hy2LI/m4p5tFFU7Lx3LXkFJYDThge39jr76AvlHLmAIgJNfXvLGnHzvRYqJJX1rDjmZy4h2vMaOkpq+x+233n7G7a9/v+OLiIjIrUyhUQaHrwGTeTLx0wIo/fwc3X4UHx7O7PT5RN0xWMXJTe/LE5RciCX+ITP+voD/SKIejMb+RQ0OgK9OUn4kmsT4UPx9wRASRWLCMAqOnKLHrzio/qyY0Khw2n+/YSLq6RdY/mQcUZZeZiWdZ6h87y5iHwrH5AsYgoh6aArV/7uaC32N21+9/Y3bX//+zouIiMgtTctTZVDdZhwGTc04AQPQePoQb+wu5uiXDoLC40h6MokIV3is3r+YYsNCRp8rovhYDdwVxcy/n431no7pSCc1xwrILyqn8ksYeX80M2YlEnWnoav/8CWEflHcueQwce5CZox19b9keV/35Xl91daTs/YoBW8XUf5ZDY6QcOISkkicOJJvjm3j2dwKACpWL8aWspH4umfZUNjeb8PiAhLTc5hhubSeqBkLmR1rxh9wHNvGszWRLHeWk3+kkhpGMnnWMmY/GORa6ttIdfEb7Dp0lJqhFib/IBIDdC5VdBzbxrN18eTM7Fg42b58mI737qnH0sWouPnMjrfg31TJG8+UMOoXy5kc4rpPn73Byg9H8cLyyQTRSHVxPm999DHVdSZGToxn/k/isAx3+0x7/Uxq3ZYzb2BxYSLpOT2Wefamj3vWzT0z2Lix+6Fvvr4Ad4RzG8DFC1TgT7zbuumg/zUWPqzhK8K7xnOe5MSRKYTH91xg7cHXDi5gITLE7VjgSCL+cAEHXZ/PJeP2V29/4/bXv7/zIiIickvTTKMMmsYvP6ag8Eus4Rb8AefZIjbnnGNCaiY5OVtInwr7txbhviKwoqKGkY+vZePWTTzzA9i/pYDKr9vPOT7dxYsfGIhduZGcnExWTTVQkrWLCrdloBVHTuL/g+W8sHULz8/0pyS3tHNJqP2DFyk2xLUvz8tcRrTb8jxvauu6sErys0rw/+E/sTEnh5wV0Vzcu4NSO5gmLiFn/UIiiGDh+hyWTDRhmZlDTnoikEh6Tkdoc1Cx50VKhrrqWbeQ0Z//kl3H3OZ9PirnXPhTrN2whU0pUdS8mt95rRc+2sGGipH8ZN0Wcp5bTqzfOWyX/UnVUJq9lXNjF/J8Tg45GfMZWbGBgs8awTiWiEfOYTvdMU/WSHVlKZOnRBAE1JRsZuv/hLLwuRxycjKYP9LGhsLKbrN1vX8mFmbk5JCeACSkk+NNYPTmnnnSdJLivRdJigptD93DAwilkb+4f76tTrA7u82KN/6hgsMPTiDUy8zYrkfjXv4v3O+4Pev1cty++w/gvIiIiNxSFBrlmirYsJjFi9tfKzMO45+8iqT7/QEnZ35XwF8lJBIVYgAMmO63Eju8pNtzYRE/iCX8DgP4+mN+KJEnRpdSfsoB2Cl/7yjRCTMIN9HeP3wGiQ8eZf+nXc9lRUyNI8rsD74GRo6dwGjHOS50hEpDABe/quVcnQPnkCAiHnuGpLEBOL2srdPQsSRmrOqawbwjlAn32TlTO4CFfnUnKHVbHslwM5MfiqOi8kzXcsGHZjJjrAmDrwH/saFMoMJ1LXYqPqwkLiGO0OEGMPhjfiiWWO/fvYcgopZnML9jFtPfQmg4lNprAQOhD8Rz8eip9mWQjdWc+NBKpOvag6KXkzE3iqD2jljGTYAPz1HrNnqfn8lAeHPPetNk51BuHheTFxJndh0LGUtU+CEKik/S2ArOhkoK3i6CcQGYOjs2cqriDPH39x9nB6afcXurdyD66/9dxxcREZGbjpanyjXVufTy60reyNhP0J0dO6d+g+MrOFm8lsWv9+iT4Gm0IILM4GwFcOK0RzDqTvd5EQNBI8OxN7jNDQ35K4+1mX+4imeOlVKy50V2nHISNMnKE7PiMOAYWG2+Bhqri8jf/zEfV3c9qRYR4fGtL/X1RU5yiJPLDnU//sAot2vx1NmJ0x7OyJArNUdkgPqj5L97CNtnbs+4dVy7OZTor1+jwj6ZyRds2B6JIsm/o+dXHH1rB4cqKqnp7JjYffg+PpMB8eaeXeICR/f8G7Z7U1k10f0ZxCAm/3QlF1/NY2XqXxg5MZ6kh6zwRUDX0tS6Cg43xDJ7wMGqx/R0a4/TfY7rqV4vxu23vzfnRURE5Fak0CiDY3g4cQklrH3vKNFPR2HCD//hEJGykSUTTf33B+ACF+wQYPYDDBjMFZyrdRIV2BGWnFyoqcQc8JgXYzVSc+ocfuNmMH/iDGhtpPqDHWx4K4iNPx07sNrsh9j22kVmrn6e+XcYAAdHX3l2YMtDDQbMpkSe3Nj7ssy+5ywNGMyV1NQ54Y4+gmOLl7U0VlKQaSMo/Z/IXOqPgfZnETd0NjAT8YMAtp06SdD/nCD2ofmdz1VW7vsltpB0/ilzOf4G2neJ3dD723xn/dyzSzVSvX8HJSGpLJ9puXQZ5vBQZix/gRkAODn59homj0vsDI0XTtsganYvX5XRh+EmgviYmjqwdDx/2FBDxbggkvodt496vRi33+vt97yIiIjcqrQ8VQZN0IMzSax7i+I/OAF/xkbEceaD/Ry1u554+9rOx28XUe32ANyZo+VUfw3gxFH5MSVnrEyw+ANmoh+JorywiEpHx/kiCo5EMfMB76aCvvp0B7t+W4nDfYbGaMDPy9o6tTq56PpPp7ORC9U2Tnzudn64iSC+ofEbJ86OyaHhAYRykcZG1zFzBLGjStj/3kkczq7ryT/Sc4/N3piJmBrOocJDnPzaCc5G7B+VUOLW4rbhQfDZia7zR8o9h9pmZ9cziE4njtoKTlR2bxJ0/xRGHclnvz2eCZ2JrRlnU2dHnI4aKj474UX9XUymUPhTI41OZ895tEsN6J45qd6/ma11sSycabl0oxz3lo4aKt/bRt7ZmcRGdLS0U/FBAFPuH+BsnGE04Y98SclHrr9njTV8/NFhwqPGukKip3H7qbffcfu7Xu/vh4iIiNx6NNMog8dgwZoQybq3DxGZPgPLuCT+1fcQ+/a8wI7qC5juCic6YTaT3X6CHW0G22vPs/Uz1+6pz8wn3LUTp+mB+axqLSB/42I215nad09Nm09EoDfF+BM+axWN7+bzYvpmahxBWCZZSZ/l2inTi9o63RPHMzN2sWP9MrYxkvAH4wgNh8pv/+K67tFEzvJjR8Yy9j/2L2x8xAwhY7E+dIjXVi4j9OmNLHwgiMkLV2F4L58X12xy1RPHk094F1KCHlpI+jdvsCtjGTWMJGrGZCI503Xrx1lZPu4N8tKWuXZDjcLjIk5TBIlLz/DGqyvJr2uvY8o4M3z7l85dbxk+lgnmbXxlWUJXRDcRkbCcM3t2sPKtCwRZJhM3KRRzxwYzXkxlBY23MvmD11i5LJQlGxcS0edE7wDuWUMFxYXVOKhm7ZEd3U51LqF27Shbclc4kX8bR/qK0K7nGe0nKTdPYNXw/q+hOwOhj6wi/t18NqRudt37VBZOCup73H7r7Wfc/voHenM/RERE5Fbl09DQ0OZt47a2NlpaWmhsbGTUqL6eExK58qr3L6Y4ZCDLV0WuBicn9z3PqXHPkzj2Si7ivFrjioiIyI3o3Llz+Pv7M2TIEHx8fLzuN2LEiCtei2YaRUQGxEDoYy8QesOMKyIiIvLd6JlGERERERER8UgzjXLDsMzMYclgFyEiIiIicovRTKOIiIiIiIh4pNAoIiIiIiIiHik0ioiIiIiIiEcKjSIiIiIiIuKRQqOIiIiIiIh4pNAoIiIiIiIiHik0ioiIiIiIiEcKjSIiIiIiIuKRQqOIiIiIiIh4pNAoIiIiIiIiHik0ioiIiIiIiEcKjSIiIiIiIuKRQqOIiIiIiIh4pNAoIiIiIiIiHik0ioiIiIiIiEcKjSIiIiIiIuKRQqOIiIiIiIh4pNAoIiIiIiIiHik0ioiIiIiIiEeXFRp9fHxobW290rWIiIiIiIjc8lpbW/Hx8RnsMjpddmhsaGi40rWIiIiIiIjc8hoaGm7s0Ojj44Ovry+1tbW0tLRcjZpERERERERuSS0tLdTW1uLr63vdBMfLCo1+fn4YDAYOHz7M2bNnaW5uvhq1iYiIiIiI3BKam5s5e/Yshw8fxmAw4Ofnd92ERp+Ghoa2gXRoa2ujtbWV5uZmGhoa+OKLL/jqq69wOp1Xq0YREREREZGbmsFg4I477uDee+8lMDAQPz+/y5ptHDFixBWvzW+gHTqWp/r5+XH77bczbNgwWlpaOjfGaWsbUAYVERERERG5ZXWEQl9fX4YMGYLRaGTIkCHX1fLUAc80ioiIiIiIyPXtSs44Dnim0V3HUtWWlhaampo04ygiIiIiInIZrucZx+8UGjuWqvr4+DBkyBAFRRERERERke/Ix8en22uwfafQCF2J+Hq4GBERERERkZvF9ZKxvnNohOvnYkREREREROTK8h0xYsRV2ZZVREREREREbny+g12AiIiIiIiIXL8UGkVERERERMQjhUYRERERERHxSKFRREREREREPFJoFBEREREREY8UGkVERERERMQjhUYRERERERHxyO9KDNLW1nYlhhEREREREREXHx+fwS4BuAKhsa2trdtLRERERERELp+Pj09nYLweguN3Co1tbW20trbi4+PDsGHDMBqN18VFiYiIiIiI3Ija2tpoamqisbGR1tZWfH19Bz1jXfYzje6BMTAwkKFDhw76xYiIiIiIiNzIfHx8GDp0KIGBgfj4+NDa2jroKzovKzR2LEVtaWnR7KKIiIiIiMgV5uPjg9FopKWlZdAfBfxOM43Nzc3cdtttV7IeERERERERAW677Taam5tvzJlG6Fqe6uurb+0QERERERG50nx9fW/c5akdBrt4ERERERGRm9n1kLkUGkVERERERK5T10Pm0tpSERERERER8UihUURERERERDxSaBQRERERERGPFBpFRERERETEI4VGERERERER8UihUURERERERDxSaBQRERERERGPFBpFRERERETEI4VGERERERER8UihUURERERERDxSaBQRERERERGPFBpFRERERETEI4VGGQQObK+tY8H0aCwWC5bYJFLXF3LaMdh1fRdNnC7OZvWsqe3XZJlKUno2B8809dq6viyPdYviibZYsETHs+C5PMrqezSqLSTVYnGN53pFxzM3PbdHWxvZFgup73QdtG22YFlWSM8h3SqgcJkFy2abl9fn4GC6BcuCvdi97fG7Hte4vpDTjT0aNdjITU9iauc9y8XW0L1J05mDZPfTBhzYXllNUmz7fZo6azW5v7uh/0KJiIiIXDcUGuUac1D6XBxJ/17HpNW7KT9+nPLcZTxwPov4n2Zj6xkqbghN2DbPIf5fyzDNXk9x+XHKD60n+XtlPBc3h+wT3YOj/Z0VPDqngKYpaWw99CHF29KIbSpgzqNzyT1xachcuvM4x4+3v8r3ZJDgf4A5j67gYO21uj7g7AH+461ggqvyOPj7/ps3VWSzILkApq0n//hxyvekEXZsBfHL3ENnFbkpSRzwn8/L5cc5Xv4yyeSRlJJLVUeT84WkP/kcn967jB3lxzn+X5tIbN5O0vQsytxuVdXOBSQdNDI/u5zjx8t5eTbkJS8g14taRURERKRvCo1ybdWXse/1elJ+8RIp1jEEm0wEj7aSsuVl1jRl8WKht/NY15H/s5fMTXZSsnawJimGMcEmgkfHkPwvL/PzJ2xkvV5K55zX2b2s+4cypm/byvqnphE52syYiGnM27Cb3Y9/Tuamgktm8oYGmDCZ2l/Bo2NIXp1GSn0h+8qu3b2qej+P0ifWsjapju37y+h9/rRDPaWvZ2FPTWNNUiRmk4ng0dNI++elUFpCRUfYrShle0Uyi55JICzYhCk4jOTVa0iu2E5phet933mBwrA0MlKtjAk2Ybo7knkr1zKtPhtbZyC0UZpjI3lxGgnjgzGZgglLWsOaJ2xsf9/bmVQRERER8UShUa4to5EAwF5f1+PEGBJ/tZulEwMAqH8nFYslm24/8tcWkmpJpbAzdGRjsWRR+H4mC2Lbl1ra31yAZX6PJZRn97LAMpe8M12H7KXZrHAtj42evoLsUlePhoOstlhY97770sb2pZzRG3sPS3bbQWzB85k+xdjjjAnrynfY/djorrZlhZSOX0RyfHDPG0NMwiLCSgspO9vLm3RrasQI/Knv5HYFVVH2n1XMi7eSMHMRIVsLKL1keai7bzGGrSHth2F0uyPGoQQTgsm//Y/15yupnxLJ+EC3NoHjiZxST+X5eqAJ7lzEmjkxmLuNY8RIGMaOwWvPU1k/icixJrdGJsZHTKL+1Pk+luiKiIiIiDcUGuXaMsWQvM6KLS2JuWvyOPh7O44mACPBE2KIGW3qb4QesnnhTSOPrdvN7hljMMdMx3q4e/CyHztAqTUBqyu72d9ZQVKGnQd+lc/x4+XsXn0fn6YntQfFwBimz4W84rKu2cHaMt4rCmPRzBh6xkKA+vpPYKK5e7BxMd4ZRkzMGEzube8NIaS3S7k9hLv5hPo/9nG5TQ5sO7ewFysJMb2945XXVHaA7fVLmT7FBONjSBy/l5JjfT0vaMa6IIXkCPfPsgnbbw/A09OJcR2uO28D01CGdus7lKGd3YyEPZ5CysPdr9N+eB+F1nlMG+86UG/HxvcY2uPDGTrsewO8UhERERHpjUKjXGNGwp7ayaEDPyemMY/nHp3K98dN7X0jGK/MY8Ov00iwugLnPdP5uyc+Ie/9jqfi7JQVlZL8k+muUGej8JeFJP4ig3kRZkymYMZYl5K2MIS8ojLqMRHzyFKC3yqhzDWbVn/sPQ6OTyRmfO8VXG1Zs9w2whn3fVL3mlhW8BLJ91yLd3dQui8bkiYRaQQIY9rcSex984DXG+IA2N9JJ/XNSDYs7greTc0D/8CbKrJZmVbPmn9M7grpzWg2UUREROQqUmiUQWH6m2ksfamY8s//wIdvp/HAH3OZ8+gKCs8PdKSu5Y6ukbH+KIWq/yxr30zlbBmFpcnETnRNX9Wep7IecueP67Yr6Y/WV8EpO3WAMWY6i8bvZd/heqCesoMHsf79NMK8rql9N9Ou8Xsssx2gro1wilk/A7D+HckTBjoje5lqS9n3VvdZVnNMAtZS7zbEAbAXrWbuLyFtzxqsbktRjX49l+j2rakim4VLSojZtZMU9wDvBwMbSUREREQGQqFRrqmm2irKyk53Lf0cYsQckcDSLTvIGFvIC+9U9dXdK8aJsSytL6Ds9+3PEH6emtgVVpoBrGS827UjaedrzzxXMAwjJiGMg78pwV5bxntFVqZP9LwU1HzvNCiq5HTnM4aRpLjGLM6c1q1tcPAkOGbvfZbuj3WcZxLBt3c/3LURzhgSF6YR8koWeddoV1D74X0cpIrMR91CcOxqSqnyYkMccPwum5UZdcx7dQPJo7uvHw25OxIc3/Jtt6N11H3Ry0DnC0lfUsLozE2kTekRmIPNRPInvu1RTF39gH8DISIiIiK9UGiUa+u/D7BiTiYHLtnsxUjAMKhvbv/J3+gfAj3iBE3f8idv3sMYw/SFUHD4/2/v/oOrru98jz8DnMVGbgBNGOn1oHOkS5ToNHFM5Icl1AUUbpNaMbdYobuAIgVcflwLF3fFdGsKl4vaCoUo6IX4o4NxKlFQYGviivJrm8zVpIUpZJTDGobgIufaaHqA3D/yO+QkQdBYeD5mMiPf7+fz+b6/3wMOLz6fz/cUUbLlT+SMTGvei5iURJAS3t1/oumNpM0/zaFm6LjJZJa8wcaC19l613/ntg6WgibddDvjWMuGLc1RsHfDmH0vbd02OCyLzOoNbHi1bWysZWfR01RkZjGsg2v1Tp3M7LtKyVu/lS//Wwgr2Pp/Shi+5NUzAvZbv8yhenUxpR2kxtqyVUydtZPRa1Yz/bozd4MmXZlC0o5S/tDypTrHD3PgD0mkXNli7vBwEXPvXMElSx4n99Z2wvsVV5KS9C6l+1s+kQiH91eQNORKZyElSZLOkaFRX6new3J46I4KFs1fRMG2CsKRCJHDFWxdvYRHt6axILN+ri9h8FAy2ciG9aWEIxHCZRvJW7yCd7t4naEjs2HpXJb8573cNqxFYOk9jMn/axylC+ax5NUKqiMRIodL2Zh7D1PXVzTPnF01jNsyS1i1eis5tw6jw8WgV2Sx+JdZlC64h5lPbaXicIRIpJoDZVvZWFQKSTSH1qtyyP3lMHb+Y33b0oNhDpRtpWDhj/jRb7/F4nnZ7b5Qp1kC4368mKEvraSgrJN5vlOfcyISIdLmp1Wvz888H6l/M1H9C3D+kElW5tAzAnZwbDazktay6a32o2v9UtJNpOX9gsnX1LYev/G7OFMzuTd1Iw//vIDSw/WfQ8HPH2Zj6r1kpja0ObyVRZPnEvnJr1k8sm+7dUIamTPS2PjPD1NQFiYSCVO6/mEefimNe29N6/gZSZIkqVO9ursAXWyCZK3YznXbClib/xOW3B8GgqTdlcPP3pjMuL9tiFdX5ZD79AGW/Hwio3IhmJrD9GmzGbezi7HxunFMzsyjYOSwM/YiBic+wfMJa1mb/xMy/jEMV6WRM2kBy+5p+RURQW77YQ6LKpLIHtX5/sHg955g+5CtFKx7mp98ZyZhIJg6nGGZP2PbinEMbtP2tcQCVj6zgplLD1CdNJjhmTk8/9p0hnVlWuy6HBbc8zRTn9xE1jM5sUPm1kWM3bqozcFxPPHuarKuaPjl6ql8e3XbjgsorJxM9SurqL5rdfuzrL3TGD4xiR/95g1mjT2zhoodK3i3Gt69dxRr2/adV0jlnDRgKNPXFsLSPOZ9ZwlhgqTddS+Fa6c3fWbVZa+w8UMg93t8O7fNOOOfYPfKLJKAoVOfofBkHnnzR7Hkw/rfL/dubLP3UZIkSV9IXF1dXR3AJ5980uVOdXV1nDp1ipqaGgYNGvSlFSd1p4pnJjL14wX824Ptf9WGJEmS9GU7dOgQ8fHx9OzZk7i4uC7369ev33mrwZlGqY3aSJgDu4pYkQ/3PmtglCRJ0sXNPY1SK9WU5I7ie7/4PYPzHnd5oyRJki56zjRKrSQxbkUlld1dhiRJkvQ14a057lcAABUMSURBVEyjJEmSJCkmQ6MkSZIkKSZDoyRJkiQpJkOjJEmSJCkmQ6MkSZIkKSZDoyRJkiQpJkOjJEmSJCkmQ6MkSZIkKSZDoyRJkiQpJkOjJEmSJCkmQ6MkSZIkKSZDoyRJkiQpJkOjJEmSJCkmQ6MkSZIkKSZDo/46HS4hb+ooQqEQc7dUd3c1kiRJ0gXL0KivVtkqQqFQq5+M26ayZH0pkXaa15atYmIoxKiFRYRPNR4Ns/Hhqawt+ZzMqYsZPrB3ix5hihZkEMq4h1X/3t6IX0NHipgZChGaXUTL+Fv6ZP3zmflqNVBN0ezQGc8u1E4/SZIk6Xzq1d0F6CJ1XRazslLo++cw7xYVUJBbQkXNqzw/cyhNETBSwcaXionc8QTPLcsi2Hj8SBnFJcC4h8j9pxbHqaX6dxt5peJbLFizjlmpvbkQZd6zmOFXtjhw2ZVcmHcqSZKkrwNDo7rH1d9lyn1ZJAHT/344i26cycblb1AxcyhpjW0ShjI5r5DJscboCZe0OtCbpFsX8MytX17ZXwc33jGd6amdNKqtYO3UqTzNbJ55fjJDv5LKJEmSdCFyeaq6X/+khtnCCJHGFaXHSyl4eCqjQiFCGWOZurSIAzXUL28dPpetAFvmkhGaSdERgFoObFvF3NsyCIVCjLpzEWublqc2Lu1cwtr1MxkVCrGqrLM+pawKNfZZxMTRIUKhUUx9cmfzMtpTYUqenMvYjBChUAZj781j6+HGkx2N/VWo5cRH1VR/XvsVXlOSJEkXIkOjul1k506KATKHck0CUFvBqukTWfLcQa67bzGzbh1AxVNz+dGvdlJ79TieXzmL4QAjZ7H6+dkM6w/VWxbyo/tXsPPy0cxaNJ3r/nMjeTlz2fhhyysVkJe7lXDDr7rap2BvArdNmk5mUpiSx+dS0BA4dy6fyNTHdzLg1lksnjOahN+tZeb9qyit7erYX8yKO1vuaWwMzW30TmNBcSWVL093llGSJEnnxOWp6h5b5pIRmtv866tyeGJJNkGgdu8mVpTB0EW/ZvV9Q4EcUk59m5lPvcHOn+SSmfYtNgAkfIu0YUNJIszG3xRRTQ6rVy5lXH9g5AC+99/yKPhdBTlTBzRcZDi5bzzH5L8FCLPx8Y76NBY2i8dXLiANGJcUZtSCrZQfroZrKnjjqWoYuZRf5OUQBDJvGEzJwd7URsIUd1jPucW41nsaE7gy/pyGkyRJkjpkaFT3aHgRDvs3seq3FWTOmEXWVfWvc4kcr58LrFj6PUJLW3Y6SqSmvcGqqd4BsJGZN25sferPLZdn/hf6Jpxtn+Zdk5e0/NNSE+EoQMIlTS0G3zqdwbcClFLapbG/mC7taZQkSZLOE0Ojukfji3CODyayYyoFj6+lZFwumf0hoX/9DsfB9ywl9/Zgi04JDO4PHG87WBJJI4EdmSx4+l7SWs68DRgMtBfUOutzoOP64xMYABD5nM8bDkUO7qTiaG+uHNrZ2G007uncW86BmiyS4gEiVB+urzPl6iTwSzUkSZLUTQyN6l79M5k+L5OCxQWseC6bYXPS6H1TNgtS17LiuVU8TRbDr+zL0T+8QfiGXJ4Y1t4gQUb/MIukHUVsWJ7AiR+kMODPYd59H6b8bBjtB67O+nQiYRi33ZdEwVMr+J+Lw2QmVVPym428yyye/7cFZzd27zSyH0xj7fK1zP3BUbJ/EKR2VxEFJZB0x0NkXd+6+e9/u5a1e1scuCyNnIlpJLRsVFvKitsmsuqyxbzqvkZJkiSdA0Ojul3wjtkseK6EFY+vZFPWM+RcNZRZz24j+Os8Vv52FXnVSQy+9TYm3xCM+X2ESeOf4LXnU1jxvwtYu7QIrkoj5wf3cuVlsa/7Rfo0682wBwt55tIV5D3XUGPWAp75H7MY1hs4q7F7M3TmM2y7ciV5qzY1t5+3mOnTxhFs07rkuTxKWh4Y/wTZE9PatOpN328mkeQ3OEqSJOkcxdXV1dUBfPLJJ13uVFdXx6lTp6ipqWHQoEFfWnGSJEmSdDE7dOgQ8fHx9OzZk7i4uC7369ev33mrwa/ckCRJkiTFZGiUJEmSJMVkaJQkSZIkxWRolCRJkiTFZGiUJEmSJMVkaJQkSZIkxWRolCRJkiTFZGiUJEmSJMVkaJQkSZIkxWRolCRJkiTFZGiUJEmSJMVkaJQkSZIkxWRolCRJkiTFZGiULiqVbJmxhj3Hu7uO86ty8wxmbK7s7jIkSZIuSL26uwBdbCrZMmMZm1ocSQyNYMTYMYxJHUigTetje9ex7M2BzJwznlD8V1mnLhqfVrL95ZcoebeSYwkDSbk5m0l3pJLY+E9qtWFKfvMC29+t5NiAFMb8YBITUxPbGegY7zxRSODH95PeH4jWUBXeT2XZ++wpTyR7yXhCLZvXVrHntUI2bStvuO5EJt2Zwpkjtxm303o7Gbez/p2dlyRJFx3/GqBukb0wn/z8fPJXr2Th3ddQ9cJjFL5X07rRp+VsfzPAXdMv0MB4fA9r2s76VW5hxowtOGfW2pc2kxgNs2XVag6F7uah1fnk584gLfICa/413NAgQtkLv2J3YjYPrc5n5ZwMTrywhi2V0TPHCpdR3D+DlP71/fY8+yiFu44R6Av7Pjrjwux7/TG2MZqFq/PJz5tNRmQ964qrOh6303o7Gbez/p2OL0mSLkaGRnWvHgESgiMYO64vJX86RKu/ivdJYdLCKaRf3l3F6YL30fsUHxvN2FuCxPcA4geSfnMG4Q+qiAB8vI/duzLIHptMfA8IDEgnO+tSNu3aT5t/4qDyvW0kp6dQ/+8bCaTf9yhz7h5DeqidWcnoQcpf/yajb0khoQcQSCT9lpFU/t9KjnU0bmf1djZuZ/07Oy9Jki5KLk/V18I3el8KtSeJAgGg5sB2Xnx+G3s+ipCYMoaJd08ktSE8Vm6ewbbANK45tIVte6vgm+lM+PtJZF7VOB0ZpWrvJgq37Kb8Ixh4Qwbj78wm/YpAc/8+95P8wbamJYfZ90xj/JCG/mcs72u9PK+j2tqKHtnDppe3sPu9KiIDUhiTNZHsmwby2d41PLi2DICyRTMonb6csUcfZFlRfb9lMzaRvTCf8aEz60kfP41Jo4PEA5G9a3iwKo050d0U7iqnioGMuHM2k25ObFjqW0PlthfZsH0PVZeEGPHdNALQtFQxsncNDx4dS/6ExoWT9cuHabx2W22WLqaPmcKksSHia8t58YFiBv3LHEYMaHhO773IvLcG8eicESRSQ+W2Ql56+x0qjyYw8KaxTPnhGEJ9Wnym7X4mR1osZ17GjKJsFua3WebZng6eWStXjWf58taHPvv0GFyewjcAThyjjHjGtlg3nfhfh8BbVXxMSvN40X28v2skKWPbLrCO4dMIxwiRNqDFsf4DSf3jMSI0fz5njNtZvZ2N21n/zs5LkqSLkjON6nY1H73DpqKPyEwJEQ9EP9zCk/mHuH5mHvn5K1k4Cjav3kLLFYFlZVUMvOMhlq9+nAe+C5tXbqL80/pzkd9v4LE3A4yet5z8/DzmjwpQvGIDZS2WgZbt2kf8d+fw6OqVPDIhnuK1JU1LQsNvPsa2wJj65Xl5s8losTyvK7U131g5hSuKif+7n7I8P5/8uRmc2LiOkjAk3HQ/+UunkUoq05bmc/9NCYQm5JO/MBvIZmF+Y2iLUPbCYxRf0lDPkmlc86efs2Fvi3mft3dzKOXHPLRsJY9PT6fq2cKmez329jqWlQ3kh0tWkv/wHEb3OkTpF/6kqihZtZpDQ6bxSH4++blTGFi2jE3v1UDvIaTefojSA43zZDVUlpcwYmQqiUBV8ZOs/o9kpj2cT35+LlMGlrKsqLzVbF37n0mI8fn5LMwCshaS35XA2JVnFkvtPrZtPMHE9OT60N2nL8nU8JeWn+/pKISjrWbFa/5Yxo6brye5i5mxXpvG7fzfuNNx29bbxXE77n8W5yVJ0kXB0KhusWnZDGbMqP+Zl7uD+Jz5TLwhHohy8N838TdZ2aQPCAABEm7IZHSf4lb7wlK/O5qUywPQI57gLdncdU0Ju/dHgDC7X99DRtZ4UhKo758ynuyb97D59837slJHjSE9GA89Agwccj3XRA5xrDFUBvpy4uMjHDoaIdozkdTvP8DEIX2JdrG2JpcMITt3fvMM5uXJXP+tMAePnMVCv6PvU9JieSR9goy4ZQxl5QeblwveMoHxQxII9AgQPySZ6ylruJcwZW+VMyZrDMl9AhCIJ3jLaEZ3/eptJJI+J5cpjbOY8SGSU6AkfAQIkHzjWE7s2V+/DLKmkvffyiSt4d4TM+aQe086ifUdCV17Pbx1iCMtRu/wMzkbXXlm7akNs31tASdypjEm2HBswBDSU7azads+ak5D9Hg5m17eAtf2JaGpYw37yw4y9obO4+zZ6WTc9uo9G531P9fxJUnSBcPlqeoWTUsvPy3nxdzNJF7R+ObUz4h8DPu2PcSM59r0yYo1WiKJQYieBogSDacy6IqW8yIBEgemED7eYm6o59/ErC34d/N5YG8JxS88xrr9URKHZ3LXnWMIEDm72noEqKncQuHmd3insnmnWmpqzEuf6dMT7GM7+2Zvb338xkEt7iVW5yjRcAoDB5yvOaIAVO+h8LXtlL7XYo9b470Hk8n4dD1l4RGMOFZK6e3pTIxv7Pkxe15ax/aycqqaOma3Hr6Dz+SsdOWZneEYe174FaVXz2T+TS33ICYy4h/mceLZAubN/AsDbxrLxFsy4YO+zUtTj5ax4/hoJp11sGozPX26zekOx41VbxfG7bR/V85LkqSLiaFR3atPCmOyinno9T1k3JdOAr2I7wOp05dz/00JnfcH4BjHwtA32AsIEAiWcehIlPT+jWEpyrGqcoJ9v9+FsWqo2n+IXteOZ8pN4+F0DZVvrmPZS4ks/4chZ1dbeDtr1p9gwqJHmHJ5AIiw56kHz255aCBAMCGbu5e3vyyz4znLAIFgOVVHo3B5B8HxVBdrqSlnU14piQt/St6seALU70Vc1tQgSOp3+7Jm/z4S/+N9Rt8ypWlfZfkrP6d0wEJ+mjeH+AD1b4ld1v5lzlknz+xMNVRuXkfxgJnMmRA6cxlmn2TGz3mU8QBE2ffyYkZcm90UGo8dKIX0Se18VUYH+iSQyDtUHYVQ4/7D41WUXZvIxE7H7aDeLozb6f12el6SJF1sXJ6qbpd48wSyj77Etj9GgXiGpI7h4Jub2RNu2PH2aZh3Xt5CZYsNcAf37KbyU4AokfJ3KD6YyfWheCBIxu3p7C7aQnmk8fwWNu1KZ8KNXZsK+vj369jwr+VEWs7Q9A7Qq4u1NTkd5UTDf0ajNRyrLOX9P7U43yeBRD6j5rMo0cbJoT59SeYENTUNx4KpjB5UzObX9xGJNt9P4a6279hsT5DUUSlsL9rOvk+jEK0h/HYxxS1afKNPIrz3fvP5Xbtjh9qT0eY9iNEokSNlvF/eukniDSMZtKuQzeGxXN+U2E4SrW3qSDRSRdl773eh/mYJCcnw/2qoiUbbzqOd6ayeWZTKzU+y+uhopk0InfminJYtI1WUv76Ggg8nMDq1sWWYsjf7MvKGs5yNC1xDyu0fUfx2w++zmireeXsHKelDGkJirHE7qbfTcTu7364/D0mSdPFwplHdLxAiMyuNJS9vJ23heELXTuSfe2znlRceZV3lMRK+mUJG1iRGtPgb7DVBKF3/CKvfa3h76gNTSGl4E2fCjVOYf3oThctn8OTRhPq3py6YQmr/rhQTT8qd86l5rZDHFj5JVSSR0PBMFt7Z8KbMLtTW5KoxPDB+A+uWzmYNA0m5eQzJKVD++V8a7vsa0u7sxbrc2Wz+/j+x/PYgDBhC5i3bWT9vNsn3LWfajYmMmDafwOuFPLb48YZ6xnD3XV0LKYm3TGPhZy+yIXc2VQwkffwI0jjY/OivzWTOtS9SsGB2w9tQ04m5iDMhlexZB3nx2XkUHq2vY+S1Qfj8L01vvaXPEK4PruHj0P00R/QEUrPmcPCFdcx76RiJoRGMGZ5MsPEFM12Yykq8LpMRb65n3uxk7l8+jdQOJ3rP4pkdL2NbUSURKnlo17pWp5qWUDe8Ubb4mymkfWcMC+cmN+9nDO9jd/B65vfp/B5aC5B8+3zGvlbIsplPNjz7mUwbntjxuJ3W28m4nfXv35XnIUmSLjZxdXV1dQCffPJJlzvV1dVx6tQpampqGDSoo31C0vlXuXkG2waczfJV6csQZd8rj7D/2kfIHnI+F3F+WeNKkqS/RocOHSI+Pp6ePXsSFxfX5X79+vU7bzU40yhJX0iA5O8/SvJfzbiSJElfjHsaJUmSJEkxOdOovzqhCfnc391FSJIkSRcJZxolSZIkSTEZGiVJkiRJMRkaJUmSJEkxGRolSZIkSTEZGiVJkiRJMRkaJUmSJEkxGRolSZIkSTEZGiVJkiRJMRkaJUmSJEkxGRolSZIkSTEZGiVJkiRJMRkaJUmSJEkxGRolSZIkSTEZGiVJkiRJMRkaJUmSJEkxGRolSZIkSTEZGiVJkiRJMRkaJUmSJEkxGRolSZIkSTGdU2iMi4vj9OnT56sWSZIkSVKD06dPExcX191lnHtoPH78+PmqRZIkSZLU4Pjx43/doTEuLo4ePXpw5MgRTp06dT5rkiRJkqSL2qlTpzhy5Ag9evTo9uB4TqGxV69eBAIBduzYwYcffsjJkyfPZ22SJEmSdFE5efIkH374ITt27CAQCNCrV69uD41xdXV1dQCffPLJWXWsq6vj9OnTnDx5kuPHj/PBBx/w8ccfE41Gv5RCJUmSJOlCFwgEuPzyy7n66qvp378/vXr1+kKzjf369TtvNfX6oh0bl6f26tWLyy67jEsvvZRTp041vRinIYtKkiRJkjrRGAp79OhBz5496d27Nz179vxaLE/9wqERmoNjXFwcPXv2NChKkiRJ0jmKi4tr9dPdzik0QnMi/jrcjCRJkiRdKL4uGeucQyN8fW5GkiRJknR+ndP3NEqSJEmSLmyGRkmSJElSTE1fuSFJkiRJUlvONEqSJEmSYjI0SpIkSZJiMjRKkiRJkmIyNEqSJEmSYjI0SpIkSZJiMjRKkiRJkmIyNEqSJEmSYjI0SpIkSZJiMjRKkiRJkmIyNEqSJEmSYjI0SpIkSZJiMjRKkiRJkmIyNEqSJEmSYjI0SpIkSZJiMjRKkiRJkmIyNEqSJEmSYvr/j8O5q3kI8ycAAAAASUVORK5CYII=;" parent="1" vertex="1">
          <mxGeometry x="30" y="40" width="909" height="536" as="geometry" />
        </mxCell>
        <mxCell id="5Sn3j4--U58D7-IX_2XP-3" value="&lt;font style=&quot;font-size: 14px; background-color: rgb(0, 102, 0);&quot;&gt;Ouverte&lt;/font&gt;" style="rounded=1;whiteSpace=wrap;html=1;arcSize=50;fillColor=#006600;strokeColor=#6c8ebf;fontColor=#FFFFFF;" parent="1" vertex="1">
          <mxGeometry x="70" y="350" width="80" height="30" as="geometry" />
        </mxCell>
        <mxCell id="5Sn3j4--U58D7-IX_2XP-5" value="&lt;font style=&quot;font-size: 14px; background-color: rgb(0, 127, 255);&quot;&gt;A venir&lt;/font&gt;" style="rounded=1;whiteSpace=wrap;html=1;arcSize=50;fillColor=#007FFF;strokeColor=#6c8ebf;fontColor=#FFFFFF;" parent="1" vertex="1">
          <mxGeometry x="70" y="480" width="80" height="30" as="geometry" />
        </mxCell>
        <mxCell id="5Sn3j4--U58D7-IX_2XP-6" value="" style="shape=image;verticalLabelPosition=bottom;labelBackgroundColor=default;verticalAlign=top;aspect=fixed;imageAspect=0;image=data:image/png,iVBORw0KGgoAAAANSUhEUgAAAEQAAABLCAIAAABGJ7YwAAAAAXNSR0IArs4c6QAAAARnQU1BAACxjwv8YQUAAAAJcEhZcwAADsMAAA7DAcdvqGQAAAASdEVYdFNvZnR3YXJlAEdyZWVuc2hvdF5VCAUAAAJ/SURBVGhD7ZftkeIwDECvlSuEQiiEPuiDQiiEQrg3ax2Twdj6sLzr2fH7wRCSyH6RbIU/z1/EllmVLbMqW2ZVtsyqbJlV2TKrsmVWZcusypbReDwe9/v9drtdr1c+gUN+lNPTSJNhrkz9crn8bXM6nbgAN7knmwQZNPoONVidz2fSJSGSGJIp2ZAJhuApJJZfXGZQ4wVZIpQEHSMo460rlRQftwxVQbnLFFIhRYMl55aZZFLAR4YJ4ZOZalKggGUwPw6ZrBWvEl4/Vhl6ggw1AapLvn3BYawFWWXmFVh503nzYTgZ2INJZl5aXhmofQLJMclMSsvbdPGRE18EdjZdhvdCCZ9K/eDrRuxNji6T3uzBYgLebU2XeSvlcYwm4K00XUYCJ2E3KbgqTZHJXTBeE3D9k1NkOl2fLc5VgbWJ5ZXCtWwUmdaTK02tbg4tahNjzqfLHNuzxSdsAq5XAUXmY7uUc//p+4yYwHSZesds+dTL12UClIbcaSC4AdRj1D7jJvAdMtD3STGBzA2gP4OWT5YJ1KE6KDJMTqI2sJRB2ASYgEQxoMjAxz3gSN9nxAQkig1dprNsXrR8Bk0saT+iy9AoJHaXeuBBE6h7VB9dBtRKKxx9xk1c7bJgkjEmB4qP/foO3rSASQaMyQH7lR0CaQGrjLpH5xJIC1hlwLKtpeDq+kccMvANPrECK/hkKLaUJdFixAR8MjDPZ9AE3DKAT3q9eZv9RyIyhUSf8Ip/Iy4D4ynidoJIuGGGZAqxVcTfnkSNQoJMgZnxPkbpy2QboJ1VVDVpMi+wAlo4bsDU+eSQH+WKaeTL/CBbZlW2zKpsmVXZMquyZVblF8k8n/8ALAkcmIckNxQAAAAASUVORK5CYII=;" parent="1" vertex="1">
          <mxGeometry x="820" y="80" width="54.4" height="60" as="geometry" />
        </mxCell>
        <mxCell id="5Sn3j4--U58D7-IX_2XP-8" value="" style="shape=image;verticalLabelPosition=bottom;labelBackgroundColor=default;verticalAlign=top;aspect=fixed;imageAspect=0;image=data:image/png,iVBORw0KGgoAAAANSUhEUgAAADUAAABBCAIAAAD+N3vwAAAAAXNSR0IArs4c6QAAAARnQU1BAACxjwv8YQUAAAAJcEhZcwAADsMAAA7DAcdvqGQAAAASdEVYdFNvZnR3YXJlAEdyZWVuc2hvdF5VCAUAAAEJSURBVGhD7dnNCYNAFMTxtJJCLGQLsY/0YSEWYiFmYN8hh5D3MQ9iyPzPMvxchD14O6+dfFzyccnHJR/Xj/u2bXv0hTXbDef4xhj3vrBmu+Hke0k+Lvm45OOSj0s+rn7fcRzLstg8F3ZsNJPjQy3EGg75PkQSyzgU8qEykcGhqA8ViCQOJXwoReRxKOdDQWILDqV9yCV24VDFh/Z9N8u78AL2HF3x/D7fKzi/LmLl+4tcel3EnC+Im7UQE74UbsYTo74CbkYSQ74ybsYQfR+Jm5WJjq8FN6sRHd+6rjbfEV7VdsM5vq7Dm8nHJR+XfFzyccnH9X++q/9/+3ryccnHJR+XfFzX9p3nEyXL8x1peaegAAAAAElFTkSuQmCC;" parent="1" vertex="1">
          <mxGeometry x="827" y="460" width="53" height="65" as="geometry" />
        </mxCell>
        <mxCell id="5Sn3j4--U58D7-IX_2XP-9" value="" style="shape=image;verticalLabelPosition=bottom;labelBackgroundColor=default;verticalAlign=top;aspect=fixed;imageAspect=0;image=data:image/png,iVBORw0KGgoAAAANSUhEUgAAADUAAAAxCAIAAAD1FXYxAAAAAXNSR0IArs4c6QAAAARnQU1BAACxjwv8YQUAAAAJcEhZcwAADsMAAA7DAcdvqGQAAAASdEVYdFNvZnR3YXJlAEdyZWVuc2hvdF5VCAUAAAFvSURBVFhH7djtbYMwEIDhrtJBGIRB2IM9GIRBGIS+4g4r5cs+30VNJb+/sB2ZR5YVKflaP7vm89V8vprP1//3DcOwLIsOHM3zPI6jDorL+MB9bzmJ4GQfK/HJl3BSNTHhJBPx1oem6zrdcq+CeMAR2+paQU/n5yc6cZS5fx6iH0cZH9URQ3CU95GVGIWjIh+VEwNxVOqjEuIljkldtmfw0ZnIMBF50Nk9J45sProjvgNHZh9dEvVpLwRHNT46E1+LwlGlj+6IgTiq9xEORb00TZMuR+Q6PxX9jvNjST/krv7+KeeqQGKN74wDRDrYiiKafZc4LiLz7yDafHe4tBpONPjOODp8lTCMJZb6SnBSLLHIx+593+vb9i5xUiAx77PipChixleHk0KITz4PTvITb31+nOQkPp0fP/R1y60KnHQgDsOgCwVl7l8iVuOkRDThKOMjiE6cxCbWP4co7/vbms9X8/lqPl/N5+uzfev6A2oADj4yjeXyAAAAAElFTkSuQmCC;" parent="1" vertex="1">
          <mxGeometry x="820.7" y="210" width="53" height="49" as="geometry" />
        </mxCell>
        <mxCell id="5Sn3j4--U58D7-IX_2XP-11" value="VALINT ou&amp;nbsp;VALPAP" style="text;html=1;strokeColor=none;fillColor=none;align=center;verticalAlign=middle;whiteSpace=wrap;rounded=0;labelBackgroundColor=#FFFFFF;fontSize=14;fontColor=#000000;" parent="1" vertex="1">
          <mxGeometry x="920" y="90" width="140" height="40" as="geometry" />
        </mxCell>
        <mxCell id="5Sn3j4--U58D7-IX_2XP-12" value="OUVERTE et (HC ou REFUSAL)&lt;br&gt;ou&lt;br&gt;FERMEE et pas (VALINT ou VALPAP)" style="text;html=1;strokeColor=none;fillColor=none;align=center;verticalAlign=middle;whiteSpace=wrap;rounded=0;labelBackgroundColor=none;fontSize=14;fontColor=#000000;labelBorderColor=none;" parent="1" vertex="1">
          <mxGeometry x="930" y="219" width="210" height="40" as="geometry" />
        </mxCell>
        <mxCell id="5Sn3j4--U58D7-IX_2XP-13" value="A_VENIR" style="text;html=1;strokeColor=none;fillColor=none;align=center;verticalAlign=middle;whiteSpace=wrap;rounded=0;labelBackgroundColor=#FFFFFF;fontSize=14;fontColor=#000000;" parent="1" vertex="1">
          <mxGeometry x="930" y="480" width="111" height="40" as="geometry" />
        </mxCell>
        <mxCell id="5Sn3j4--U58D7-IX_2XP-15" value="" style="shape=image;verticalLabelPosition=bottom;labelBackgroundColor=default;verticalAlign=top;aspect=fixed;imageAspect=0;image=data:image/png,iVBORw0KGgoAAAANSUhEUgAAAEAAAABHCAIAAAA4DtYxAAAAAXNSR0IArs4c6QAAAARnQU1BAACxjwv8YQUAAAAJcEhZcwAADsMAAA7DAcdvqGQAAAASdEVYdFNvZnR3YXJlAEdyZWVuc2hvdF5VCAUAAAGRSURBVGhD7ZnRjYMwEESvFQqhEAq5PuiDQiiEQriRM4pIOGBtbMaW9n1FDrs7Lw4Ikp+1cVxAjQuocQE1LqDGBdS4gBoXUOMCaiIEpmkax/E3BlYGUM5VAziYZVeYBJZl6fu+i4f1AcTiqgEczLIrTALDMLBxJKwPyASwm+waD1sEZAJfg7EbdtgigPOHq5+w7yelBDCPq5k42pY2BI7SgwYETtKD2gX26bGyPR+qFvg3PdbbEDhKDxoQOEkPahc4Tw+qFrhMD+oVsKQHlQoY04PtvXrO22m04+R4gW3tC6zwvUwUFHggPSgl8Ex6UETgsfQgv0ByejRnQYxwZoHk9EAvcCc9EAvcTA+UAvfTA5lAlvRAI7D/zSstPZDtwNYhOT2QCYCXw530QCkA4MBXqYgF7uMCB7iAFRc4AI+q7Np1uFZiTCE4I5BTYJ5ndn2QnA/1uMB/fTylwT5ztoFrAbC/4SkHBmHPOdiASQDAIep/0gRwstm/OW+sAtXiAmpcQI0LqHEBNS6gxgXUNC6wrn/8WPnNJU6L+AAAAABJRU5ErkJggg==;" parent="1" vertex="1">
          <mxGeometry x="815.2" y="344.75" width="45.52" height="50.5" as="geometry" />
        </mxCell>
        <mxCell id="WHxGE5MlXimAIh-ni4zE-2" value="OUVERTE" style="text;html=1;strokeColor=none;fillColor=none;align=center;verticalAlign=middle;whiteSpace=wrap;rounded=0;labelBackgroundColor=#FFFFFF;fontSize=14;fontColor=#000000;" parent="1" vertex="1">
          <mxGeometry x="949" y="350" width="111" height="40" as="geometry" />
        </mxCell>
        <mxCell id="EFdcr_yM-aocPUOUOg7w-1" value="" style="rounded=0;whiteSpace=wrap;html=1;strokeColor=none;fillColor=#A6A6A6;gradientColor=none;gradientDirection=north;opacity=30;" vertex="1" parent="1">
          <mxGeometry x="40" y="55" width="870" height="110" as="geometry" />
        </mxCell>
        <mxCell id="EFdcr_yM-aocPUOUOg7w-2" value="&lt;font style=&quot;font-size: 18px;&quot;&gt;Accéder au questionanire&lt;/font&gt;" style="text;html=1;strokeColor=none;fillColor=none;align=center;verticalAlign=middle;whiteSpace=wrap;rounded=0;opacity=30;" vertex="1" parent="1">
          <mxGeometry x="600" y="355" width="215.2" height="30" as="geometry" />
        </mxCell>
        <mxCell id="EFdcr_yM-aocPUOUOg7w-3" value="" style="rounded=1;whiteSpace=wrap;html=1;fontSize=18;gradientDirection=north;opacity=30;fillColor=#3399FF;strokeColor=#6c8ebf;" vertex="1" parent="1">
          <mxGeometry x="580" y="340" width="290" height="60" as="geometry" />
        </mxCell>
        <mxCell id="EFdcr_yM-aocPUOUOg7w-4" value="&lt;font color=&quot;#000000&quot; style=&quot;font-size: 14px;&quot;&gt;Fermerture&lt;/font&gt;" style="rounded=1;whiteSpace=wrap;html=1;arcSize=50;fillColor=#FFB366;strokeColor=#6c8ebf;fontColor=#FFFFFF;" vertex="1" parent="1">
          <mxGeometry x="70" y="440" width="80" height="30" as="geometry" />
        </mxCell>
      </root>
    </mxGraphModel>
  </diagram>
</mxfile>
